G75*
%MOIN*%
%OFA0B0*%
%FSLAX25Y25*%
%IPPOS*%
%LPD*%
%AMOC8*
5,1,8,0,0,1.08239X$1,22.5*
%
%ADD10OC8,0.05200*%
%ADD11OC8,0.06300*%
%ADD12C,0.07874*%
%ADD13C,0.06000*%
%ADD14C,0.05200*%
%ADD15C,0.07050*%
%ADD16C,0.00600*%
%ADD17C,0.02400*%
%ADD18C,0.05000*%
D10*
X0085500Y0028300D03*
X0105500Y0028300D03*
X0124500Y0109300D03*
X0140000Y0122300D03*
X0147500Y0117300D03*
X0147500Y0127300D03*
X0155000Y0146300D03*
X0165500Y0145800D03*
X0165500Y0115800D03*
X0124500Y0139300D03*
X0125000Y0146300D03*
X0068000Y0146300D03*
X0068000Y0139268D03*
X0053000Y0121300D03*
X0045500Y0116300D03*
X0045500Y0126300D03*
X0038000Y0146300D03*
X0025500Y0143800D03*
X0025500Y0113800D03*
X0068000Y0109268D03*
D11*
X0065500Y0091300D03*
X0065500Y0081300D03*
X0090500Y0133800D03*
X0100500Y0133800D03*
X0125500Y0091300D03*
X0125500Y0081300D03*
D12*
X0124063Y0159095D02*
X0131937Y0159095D01*
X0131937Y0183111D02*
X0124063Y0183111D01*
X0109102Y0175237D02*
X0109102Y0167363D01*
X0086937Y0159095D02*
X0079063Y0159095D01*
X0064102Y0167363D02*
X0064102Y0175237D01*
X0079063Y0183111D02*
X0086937Y0183111D01*
D13*
X0061000Y0058800D02*
X0055000Y0058800D01*
X0055000Y0048800D02*
X0061000Y0048800D01*
X0061000Y0038800D02*
X0055000Y0038800D01*
X0043500Y0038800D02*
X0037500Y0038800D01*
X0037500Y0048800D02*
X0043500Y0048800D01*
X0043500Y0058800D02*
X0037500Y0058800D01*
X0130000Y0057800D02*
X0136000Y0057800D01*
X0136000Y0047800D02*
X0130000Y0047800D01*
X0130000Y0037800D02*
X0136000Y0037800D01*
X0148000Y0037800D02*
X0154000Y0037800D01*
X0154000Y0047800D02*
X0148000Y0047800D01*
X0148000Y0057800D02*
X0154000Y0057800D01*
D14*
X0113100Y0061300D02*
X0107900Y0061300D01*
X0107900Y0071300D02*
X0113100Y0071300D01*
X0113100Y0081300D02*
X0107900Y0081300D01*
X0107900Y0091300D02*
X0113100Y0091300D01*
X0113100Y0101300D02*
X0107900Y0101300D01*
X0107900Y0111300D02*
X0113100Y0111300D01*
X0113100Y0121300D02*
X0107900Y0121300D01*
X0083100Y0121300D02*
X0077900Y0121300D01*
X0077900Y0111300D02*
X0083100Y0111300D01*
X0083100Y0101300D02*
X0077900Y0101300D01*
X0077900Y0091300D02*
X0083100Y0091300D01*
X0083100Y0081300D02*
X0077900Y0081300D01*
X0077900Y0071300D02*
X0083100Y0071300D01*
X0083100Y0061300D02*
X0077900Y0061300D01*
X0077900Y0051300D02*
X0083100Y0051300D01*
X0107900Y0051300D02*
X0113100Y0051300D01*
D15*
X0149475Y0076457D02*
X0156525Y0076457D01*
X0156525Y0096143D02*
X0149475Y0096143D01*
X0041525Y0096143D02*
X0034475Y0096143D01*
X0034475Y0076457D02*
X0041525Y0076457D01*
D16*
X0012300Y0010600D02*
X0012300Y0215701D01*
X0178621Y0215701D01*
X0178621Y0010600D01*
X0012300Y0010600D01*
X0012300Y0011088D02*
X0178621Y0011088D01*
X0178621Y0011687D02*
X0012300Y0011687D01*
X0012300Y0012285D02*
X0178621Y0012285D01*
X0178621Y0012884D02*
X0012300Y0012884D01*
X0012300Y0013482D02*
X0178621Y0013482D01*
X0178621Y0014081D02*
X0012300Y0014081D01*
X0012300Y0014679D02*
X0178621Y0014679D01*
X0178621Y0015278D02*
X0012300Y0015278D01*
X0012300Y0015876D02*
X0178621Y0015876D01*
X0178621Y0016475D02*
X0012300Y0016475D01*
X0012300Y0017073D02*
X0178621Y0017073D01*
X0178621Y0017672D02*
X0012300Y0017672D01*
X0012300Y0018270D02*
X0178621Y0018270D01*
X0178621Y0018869D02*
X0012300Y0018869D01*
X0012300Y0019467D02*
X0178621Y0019467D01*
X0178621Y0020066D02*
X0012300Y0020066D01*
X0012300Y0020664D02*
X0178621Y0020664D01*
X0178621Y0021263D02*
X0012300Y0021263D01*
X0012300Y0021861D02*
X0178621Y0021861D01*
X0178621Y0022460D02*
X0088004Y0022460D01*
X0087944Y0022400D02*
X0091400Y0025856D01*
X0091400Y0030744D01*
X0087944Y0034200D01*
X0087802Y0034200D01*
X0086300Y0035702D01*
X0086300Y0046239D01*
X0086442Y0046298D01*
X0088102Y0047958D01*
X0089000Y0050126D01*
X0089000Y0052474D01*
X0088102Y0054642D01*
X0086444Y0056300D01*
X0088102Y0057958D01*
X0089000Y0060126D01*
X0089000Y0062474D01*
X0088102Y0064642D01*
X0086444Y0066300D01*
X0088102Y0067958D01*
X0089000Y0070126D01*
X0089000Y0072474D01*
X0088102Y0074642D01*
X0086442Y0076302D01*
X0084274Y0077200D01*
X0076726Y0077200D01*
X0076485Y0077100D01*
X0071300Y0077100D01*
X0071300Y0077978D01*
X0071950Y0078628D01*
X0071950Y0083972D01*
X0069622Y0086300D01*
X0071950Y0088628D01*
X0071950Y0093972D01*
X0071300Y0094622D01*
X0071300Y0095368D01*
X0072509Y0095368D01*
X0072828Y0095500D01*
X0076485Y0095500D01*
X0076726Y0095400D01*
X0084274Y0095400D01*
X0086442Y0096298D01*
X0088102Y0097958D01*
X0089000Y0100126D01*
X0089000Y0102474D01*
X0088102Y0104642D01*
X0086444Y0106300D01*
X0088102Y0107958D01*
X0089000Y0110126D01*
X0089000Y0112474D01*
X0088102Y0114642D01*
X0086444Y0116300D01*
X0088102Y0117958D01*
X0089000Y0120126D01*
X0089000Y0122474D01*
X0088102Y0124642D01*
X0086442Y0126302D01*
X0084274Y0127200D01*
X0076726Y0127200D01*
X0074558Y0126302D01*
X0072898Y0124642D01*
X0072000Y0122474D01*
X0072000Y0120800D01*
X0063605Y0120800D01*
X0061951Y0120115D01*
X0055636Y0113800D01*
X0048515Y0113800D01*
X0049400Y0114685D01*
X0049400Y0116000D01*
X0045800Y0116000D01*
X0045800Y0116600D01*
X0045200Y0116600D01*
X0045200Y0120200D01*
X0043885Y0120200D01*
X0041600Y0117915D01*
X0041600Y0116600D01*
X0045200Y0116600D01*
X0045200Y0116000D01*
X0041600Y0116000D01*
X0041600Y0114685D01*
X0042485Y0113800D01*
X0031864Y0113800D01*
X0031400Y0114264D01*
X0031400Y0116244D01*
X0027944Y0119700D01*
X0023056Y0119700D01*
X0019600Y0116244D01*
X0019600Y0114264D01*
X0015685Y0110349D01*
X0015000Y0108695D01*
X0015000Y0058405D01*
X0015685Y0056751D01*
X0027451Y0044985D01*
X0029105Y0044300D01*
X0033090Y0044300D01*
X0033590Y0043800D01*
X0032159Y0042369D01*
X0031200Y0040053D01*
X0031200Y0037547D01*
X0032159Y0035231D01*
X0033931Y0033459D01*
X0036247Y0032500D01*
X0044753Y0032500D01*
X0047069Y0033459D01*
X0047910Y0034300D01*
X0050590Y0034300D01*
X0051431Y0033459D01*
X0053747Y0032500D01*
X0062253Y0032500D01*
X0064569Y0033459D01*
X0066341Y0035231D01*
X0067300Y0037547D01*
X0067300Y0040053D01*
X0066341Y0042369D01*
X0064910Y0043800D01*
X0065910Y0044800D01*
X0068395Y0044800D01*
X0070049Y0045485D01*
X0072788Y0048224D01*
X0072898Y0047958D01*
X0074558Y0046298D01*
X0074700Y0046239D01*
X0074700Y0032146D01*
X0075583Y0030015D01*
X0077215Y0028383D01*
X0079600Y0025998D01*
X0079600Y0025856D01*
X0083056Y0022400D01*
X0087944Y0022400D01*
X0088602Y0023058D02*
X0178621Y0023058D01*
X0178621Y0023657D02*
X0089201Y0023657D01*
X0089799Y0024255D02*
X0178621Y0024255D01*
X0178621Y0024854D02*
X0107569Y0024854D01*
X0107115Y0024400D02*
X0109400Y0026685D01*
X0109400Y0028000D01*
X0105800Y0028000D01*
X0105800Y0028600D01*
X0109400Y0028600D01*
X0109400Y0029915D01*
X0107115Y0032200D01*
X0105800Y0032200D01*
X0105800Y0028600D01*
X0105200Y0028600D01*
X0105200Y0032200D01*
X0103885Y0032200D01*
X0101600Y0029915D01*
X0101600Y0028600D01*
X0105200Y0028600D01*
X0105200Y0028000D01*
X0105800Y0028000D01*
X0105800Y0024400D01*
X0107115Y0024400D01*
X0105800Y0024854D02*
X0105200Y0024854D01*
X0105200Y0024400D02*
X0105200Y0028000D01*
X0101600Y0028000D01*
X0101600Y0026685D01*
X0103885Y0024400D01*
X0105200Y0024400D01*
X0105200Y0025452D02*
X0105800Y0025452D01*
X0105800Y0026051D02*
X0105200Y0026051D01*
X0105200Y0026649D02*
X0105800Y0026649D01*
X0105800Y0027248D02*
X0105200Y0027248D01*
X0105200Y0027846D02*
X0105800Y0027846D01*
X0105800Y0028445D02*
X0178621Y0028445D01*
X0178621Y0029043D02*
X0109400Y0029043D01*
X0109400Y0029642D02*
X0178621Y0029642D01*
X0178621Y0030240D02*
X0109075Y0030240D01*
X0108476Y0030839D02*
X0178621Y0030839D01*
X0178621Y0031437D02*
X0107878Y0031437D01*
X0107279Y0032036D02*
X0127453Y0032036D01*
X0126431Y0032459D02*
X0128747Y0031500D01*
X0137253Y0031500D01*
X0139569Y0032459D01*
X0140410Y0033300D01*
X0143590Y0033300D01*
X0144431Y0032459D01*
X0146747Y0031500D01*
X0155253Y0031500D01*
X0157569Y0032459D01*
X0159341Y0034231D01*
X0160300Y0036547D01*
X0160300Y0039053D01*
X0159341Y0041369D01*
X0157910Y0042800D01*
X0158410Y0043300D01*
X0164895Y0043300D01*
X0166549Y0043985D01*
X0177315Y0054751D01*
X0178000Y0056405D01*
X0178000Y0111195D01*
X0177315Y0112849D01*
X0171315Y0118849D01*
X0170049Y0120115D01*
X0169161Y0120483D01*
X0168844Y0120800D01*
X0173395Y0120800D01*
X0175049Y0121485D01*
X0176049Y0122485D01*
X0177315Y0123751D01*
X0178000Y0125405D01*
X0178000Y0152195D01*
X0177315Y0153849D01*
X0174315Y0156849D01*
X0173049Y0158115D01*
X0171395Y0158800D01*
X0162105Y0158800D01*
X0160451Y0158115D01*
X0159185Y0156849D01*
X0154536Y0152200D01*
X0152556Y0152200D01*
X0149100Y0148744D01*
X0149100Y0143856D01*
X0152556Y0140400D01*
X0157444Y0140400D01*
X0160000Y0142956D01*
X0161000Y0141956D01*
X0161000Y0139800D01*
X0141605Y0139800D01*
X0139951Y0139115D01*
X0138685Y0137849D01*
X0136185Y0135349D01*
X0135500Y0133695D01*
X0135500Y0126144D01*
X0134100Y0124744D01*
X0134100Y0119856D01*
X0137556Y0116400D01*
X0141600Y0116400D01*
X0141600Y0114856D01*
X0142656Y0113800D01*
X0139364Y0113800D01*
X0133049Y0120115D01*
X0131395Y0120800D01*
X0120605Y0120800D01*
X0119000Y0120135D01*
X0119000Y0122474D01*
X0118102Y0124642D01*
X0116442Y0126302D01*
X0115000Y0126899D01*
X0115000Y0134436D01*
X0115364Y0134800D01*
X0120656Y0134800D01*
X0122056Y0133400D01*
X0126944Y0133400D01*
X0130400Y0136856D01*
X0130400Y0141744D01*
X0129594Y0142550D01*
X0130900Y0143856D01*
X0130900Y0148744D01*
X0129500Y0150144D01*
X0129500Y0151858D01*
X0133377Y0151858D01*
X0136036Y0152960D01*
X0138072Y0154996D01*
X0139174Y0157656D01*
X0139174Y0160535D01*
X0138072Y0163195D01*
X0136036Y0165230D01*
X0133377Y0166332D01*
X0122623Y0166332D01*
X0119964Y0165230D01*
X0117928Y0163195D01*
X0116826Y0160535D01*
X0116826Y0157656D01*
X0117928Y0154996D01*
X0119964Y0152960D01*
X0120500Y0152738D01*
X0120500Y0150144D01*
X0119100Y0148744D01*
X0119100Y0143856D01*
X0119156Y0143800D01*
X0112605Y0143800D01*
X0110951Y0143115D01*
X0109685Y0141849D01*
X0106685Y0138849D01*
X0106458Y0138300D01*
X0105122Y0138300D01*
X0105000Y0138422D01*
X0105000Y0142195D01*
X0104315Y0143849D01*
X0098049Y0150115D01*
X0096395Y0150800D01*
X0071844Y0150800D01*
X0070444Y0152200D01*
X0065556Y0152200D01*
X0062100Y0148744D01*
X0062100Y0143856D01*
X0063172Y0142784D01*
X0062100Y0141712D01*
X0062100Y0136824D01*
X0065556Y0133368D01*
X0070444Y0133368D01*
X0073900Y0136824D01*
X0073900Y0141712D01*
X0073812Y0141800D01*
X0093636Y0141800D01*
X0096000Y0139436D01*
X0096000Y0138422D01*
X0094086Y0136507D01*
X0092343Y0138250D01*
X0090800Y0138250D01*
X0090800Y0134100D01*
X0090200Y0134100D01*
X0090200Y0138250D01*
X0088657Y0138250D01*
X0086050Y0135643D01*
X0086050Y0134100D01*
X0090200Y0134100D01*
X0090200Y0133500D01*
X0090800Y0133500D01*
X0090800Y0129350D01*
X0092343Y0129350D01*
X0094086Y0131093D01*
X0097828Y0127350D01*
X0103172Y0127350D01*
X0105122Y0129300D01*
X0105136Y0129300D01*
X0106000Y0128436D01*
X0106000Y0126899D01*
X0104558Y0126302D01*
X0102898Y0124642D01*
X0102000Y0122474D01*
X0102000Y0120126D01*
X0102898Y0117958D01*
X0104556Y0116300D01*
X0102898Y0114642D01*
X0102000Y0112474D01*
X0102000Y0110126D01*
X0102898Y0107958D01*
X0104556Y0106300D01*
X0102898Y0104642D01*
X0102000Y0102474D01*
X0102000Y0100126D01*
X0102898Y0097958D01*
X0104558Y0096298D01*
X0106726Y0095400D01*
X0114274Y0095400D01*
X0114515Y0095500D01*
X0118098Y0095500D01*
X0119338Y0094260D01*
X0119050Y0093972D01*
X0119050Y0088628D01*
X0121378Y0086300D01*
X0119050Y0083972D01*
X0119050Y0078628D01*
X0119700Y0077978D01*
X0119700Y0077100D01*
X0114515Y0077100D01*
X0114274Y0077200D01*
X0106726Y0077200D01*
X0104558Y0076302D01*
X0102898Y0074642D01*
X0102000Y0072474D01*
X0102000Y0070126D01*
X0102898Y0067958D01*
X0104556Y0066300D01*
X0102898Y0064642D01*
X0102000Y0062474D01*
X0102000Y0060126D01*
X0102898Y0057958D01*
X0104556Y0056300D01*
X0102898Y0054642D01*
X0102000Y0052474D01*
X0102000Y0050126D01*
X0102898Y0047958D01*
X0104558Y0046298D01*
X0106726Y0045400D01*
X0114274Y0045400D01*
X0116442Y0046298D01*
X0118102Y0047958D01*
X0118438Y0048771D01*
X0118985Y0047451D01*
X0120251Y0046185D01*
X0122451Y0043985D01*
X0124105Y0043300D01*
X0125590Y0043300D01*
X0126090Y0042800D01*
X0124659Y0041369D01*
X0123700Y0039053D01*
X0123700Y0036547D01*
X0124659Y0034231D01*
X0126431Y0032459D01*
X0126256Y0032634D02*
X0089509Y0032634D01*
X0090108Y0032036D02*
X0103721Y0032036D01*
X0103122Y0031437D02*
X0090706Y0031437D01*
X0091305Y0030839D02*
X0102524Y0030839D01*
X0101925Y0030240D02*
X0091400Y0030240D01*
X0091400Y0029642D02*
X0101600Y0029642D01*
X0101600Y0029043D02*
X0091400Y0029043D01*
X0091400Y0028445D02*
X0105200Y0028445D01*
X0105200Y0029043D02*
X0105800Y0029043D01*
X0105800Y0029642D02*
X0105200Y0029642D01*
X0105200Y0030240D02*
X0105800Y0030240D01*
X0105800Y0030839D02*
X0105200Y0030839D01*
X0105200Y0031437D02*
X0105800Y0031437D01*
X0105800Y0032036D02*
X0105200Y0032036D01*
X0101600Y0027846D02*
X0091400Y0027846D01*
X0091400Y0027248D02*
X0101600Y0027248D01*
X0101635Y0026649D02*
X0091400Y0026649D01*
X0091400Y0026051D02*
X0102234Y0026051D01*
X0102832Y0025452D02*
X0090996Y0025452D01*
X0090398Y0024854D02*
X0103431Y0024854D01*
X0108168Y0025452D02*
X0178621Y0025452D01*
X0178621Y0026051D02*
X0108766Y0026051D01*
X0109365Y0026649D02*
X0178621Y0026649D01*
X0178621Y0027248D02*
X0109400Y0027248D01*
X0109400Y0027846D02*
X0178621Y0027846D01*
X0178621Y0032036D02*
X0156547Y0032036D01*
X0157744Y0032634D02*
X0178621Y0032634D01*
X0178621Y0033233D02*
X0158343Y0033233D01*
X0158941Y0033832D02*
X0178621Y0033832D01*
X0178621Y0034430D02*
X0159423Y0034430D01*
X0159671Y0035029D02*
X0178621Y0035029D01*
X0178621Y0035627D02*
X0159919Y0035627D01*
X0160167Y0036226D02*
X0178621Y0036226D01*
X0178621Y0036824D02*
X0160300Y0036824D01*
X0160300Y0037423D02*
X0178621Y0037423D01*
X0178621Y0038021D02*
X0160300Y0038021D01*
X0160300Y0038620D02*
X0178621Y0038620D01*
X0178621Y0039218D02*
X0160232Y0039218D01*
X0159984Y0039817D02*
X0178621Y0039817D01*
X0178621Y0040415D02*
X0159736Y0040415D01*
X0159488Y0041014D02*
X0178621Y0041014D01*
X0178621Y0041612D02*
X0159097Y0041612D01*
X0158499Y0042211D02*
X0178621Y0042211D01*
X0178621Y0042809D02*
X0157919Y0042809D01*
X0165155Y0043408D02*
X0178621Y0043408D01*
X0178621Y0044006D02*
X0166570Y0044006D01*
X0167169Y0044605D02*
X0178621Y0044605D01*
X0178621Y0045203D02*
X0167767Y0045203D01*
X0168366Y0045802D02*
X0178621Y0045802D01*
X0178621Y0046400D02*
X0168964Y0046400D01*
X0169563Y0046999D02*
X0178621Y0046999D01*
X0178621Y0047597D02*
X0170161Y0047597D01*
X0170760Y0048196D02*
X0178621Y0048196D01*
X0178621Y0048794D02*
X0171358Y0048794D01*
X0171957Y0049393D02*
X0178621Y0049393D01*
X0178621Y0049991D02*
X0172555Y0049991D01*
X0173154Y0050590D02*
X0178621Y0050590D01*
X0178621Y0051188D02*
X0173752Y0051188D01*
X0174351Y0051787D02*
X0178621Y0051787D01*
X0178621Y0052385D02*
X0174949Y0052385D01*
X0175548Y0052984D02*
X0178621Y0052984D01*
X0178621Y0053582D02*
X0176146Y0053582D01*
X0176745Y0054181D02*
X0178621Y0054181D01*
X0178621Y0054779D02*
X0177327Y0054779D01*
X0177575Y0055378D02*
X0178621Y0055378D01*
X0178621Y0055976D02*
X0177823Y0055976D01*
X0178000Y0056575D02*
X0178621Y0056575D01*
X0178621Y0057173D02*
X0178000Y0057173D01*
X0178000Y0057772D02*
X0178621Y0057772D01*
X0178621Y0058370D02*
X0178000Y0058370D01*
X0178000Y0058969D02*
X0178621Y0058969D01*
X0178621Y0059568D02*
X0178000Y0059568D01*
X0178000Y0060166D02*
X0178621Y0060166D01*
X0178621Y0060765D02*
X0178000Y0060765D01*
X0178000Y0061363D02*
X0178621Y0061363D01*
X0178621Y0061962D02*
X0178000Y0061962D01*
X0178000Y0062560D02*
X0178621Y0062560D01*
X0178621Y0063159D02*
X0178000Y0063159D01*
X0178000Y0063757D02*
X0178621Y0063757D01*
X0178621Y0064356D02*
X0178000Y0064356D01*
X0178000Y0064954D02*
X0178621Y0064954D01*
X0178621Y0065553D02*
X0178000Y0065553D01*
X0178000Y0066151D02*
X0178621Y0066151D01*
X0178621Y0066750D02*
X0178000Y0066750D01*
X0178000Y0067348D02*
X0178621Y0067348D01*
X0178621Y0067947D02*
X0178000Y0067947D01*
X0178000Y0068545D02*
X0178621Y0068545D01*
X0178621Y0069144D02*
X0178000Y0069144D01*
X0178000Y0069742D02*
X0178621Y0069742D01*
X0178621Y0070341D02*
X0178000Y0070341D01*
X0178000Y0070939D02*
X0178621Y0070939D01*
X0178621Y0071538D02*
X0178000Y0071538D01*
X0178000Y0072136D02*
X0178621Y0072136D01*
X0178621Y0072735D02*
X0178000Y0072735D01*
X0178000Y0073333D02*
X0178621Y0073333D01*
X0178621Y0073932D02*
X0178000Y0073932D01*
X0178000Y0074530D02*
X0178621Y0074530D01*
X0178621Y0075129D02*
X0178000Y0075129D01*
X0178000Y0075727D02*
X0178621Y0075727D01*
X0178621Y0076326D02*
X0178000Y0076326D01*
X0178000Y0076924D02*
X0178621Y0076924D01*
X0178621Y0077523D02*
X0178000Y0077523D01*
X0178000Y0078121D02*
X0178621Y0078121D01*
X0178621Y0078720D02*
X0178000Y0078720D01*
X0178000Y0079318D02*
X0178621Y0079318D01*
X0178621Y0079917D02*
X0178000Y0079917D01*
X0178000Y0080515D02*
X0178621Y0080515D01*
X0178621Y0081114D02*
X0178000Y0081114D01*
X0178000Y0081712D02*
X0178621Y0081712D01*
X0178621Y0082311D02*
X0178000Y0082311D01*
X0178000Y0082909D02*
X0178621Y0082909D01*
X0178621Y0083508D02*
X0178000Y0083508D01*
X0178000Y0084106D02*
X0178621Y0084106D01*
X0178621Y0084705D02*
X0178000Y0084705D01*
X0178000Y0085303D02*
X0178621Y0085303D01*
X0178621Y0085902D02*
X0178000Y0085902D01*
X0178000Y0086501D02*
X0178621Y0086501D01*
X0178621Y0087099D02*
X0178000Y0087099D01*
X0178000Y0087698D02*
X0178621Y0087698D01*
X0178621Y0088296D02*
X0178000Y0088296D01*
X0178000Y0088895D02*
X0178621Y0088895D01*
X0178621Y0089493D02*
X0178000Y0089493D01*
X0178000Y0090092D02*
X0178621Y0090092D01*
X0178621Y0090690D02*
X0178000Y0090690D01*
X0178000Y0091289D02*
X0178621Y0091289D01*
X0178621Y0091887D02*
X0178000Y0091887D01*
X0178000Y0092486D02*
X0178621Y0092486D01*
X0178621Y0093084D02*
X0178000Y0093084D01*
X0178000Y0093683D02*
X0178621Y0093683D01*
X0178621Y0094281D02*
X0178000Y0094281D01*
X0178000Y0094880D02*
X0178621Y0094880D01*
X0178621Y0095478D02*
X0178000Y0095478D01*
X0178000Y0096077D02*
X0178621Y0096077D01*
X0178621Y0096675D02*
X0178000Y0096675D01*
X0178000Y0097274D02*
X0178621Y0097274D01*
X0178621Y0097872D02*
X0178000Y0097872D01*
X0178000Y0098471D02*
X0178621Y0098471D01*
X0178621Y0099069D02*
X0178000Y0099069D01*
X0178000Y0099668D02*
X0178621Y0099668D01*
X0178621Y0100266D02*
X0178000Y0100266D01*
X0178000Y0100865D02*
X0178621Y0100865D01*
X0178621Y0101463D02*
X0178000Y0101463D01*
X0178000Y0102062D02*
X0178621Y0102062D01*
X0178621Y0102660D02*
X0178000Y0102660D01*
X0178000Y0103259D02*
X0178621Y0103259D01*
X0178621Y0103857D02*
X0178000Y0103857D01*
X0178000Y0104456D02*
X0178621Y0104456D01*
X0178621Y0105054D02*
X0178000Y0105054D01*
X0178000Y0105653D02*
X0178621Y0105653D01*
X0178621Y0106251D02*
X0178000Y0106251D01*
X0178000Y0106850D02*
X0178621Y0106850D01*
X0178621Y0107448D02*
X0178000Y0107448D01*
X0178000Y0108047D02*
X0178621Y0108047D01*
X0178621Y0108645D02*
X0178000Y0108645D01*
X0178000Y0109244D02*
X0178621Y0109244D01*
X0178621Y0109842D02*
X0178000Y0109842D01*
X0178000Y0110441D02*
X0178621Y0110441D01*
X0178621Y0111039D02*
X0178000Y0111039D01*
X0177817Y0111638D02*
X0178621Y0111638D01*
X0178621Y0112237D02*
X0177569Y0112237D01*
X0177321Y0112835D02*
X0178621Y0112835D01*
X0178621Y0113434D02*
X0176730Y0113434D01*
X0176132Y0114032D02*
X0178621Y0114032D01*
X0178621Y0114631D02*
X0175533Y0114631D01*
X0174935Y0115229D02*
X0178621Y0115229D01*
X0178621Y0115828D02*
X0174336Y0115828D01*
X0173738Y0116426D02*
X0178621Y0116426D01*
X0178621Y0117025D02*
X0173139Y0117025D01*
X0172541Y0117623D02*
X0178621Y0117623D01*
X0178621Y0118222D02*
X0171942Y0118222D01*
X0171344Y0118820D02*
X0178621Y0118820D01*
X0178621Y0119419D02*
X0170745Y0119419D01*
X0170147Y0120017D02*
X0178621Y0120017D01*
X0178621Y0120616D02*
X0169028Y0120616D01*
X0174395Y0121214D02*
X0178621Y0121214D01*
X0178621Y0121813D02*
X0175377Y0121813D01*
X0175975Y0122411D02*
X0178621Y0122411D01*
X0178621Y0123010D02*
X0176574Y0123010D01*
X0177172Y0123608D02*
X0178621Y0123608D01*
X0178621Y0124207D02*
X0177504Y0124207D01*
X0177752Y0124805D02*
X0178621Y0124805D01*
X0178621Y0125404D02*
X0178000Y0125404D01*
X0178000Y0126002D02*
X0178621Y0126002D01*
X0178621Y0126601D02*
X0178000Y0126601D01*
X0178000Y0127199D02*
X0178621Y0127199D01*
X0178621Y0127798D02*
X0178000Y0127798D01*
X0178000Y0128396D02*
X0178621Y0128396D01*
X0178621Y0128995D02*
X0178000Y0128995D01*
X0178000Y0129593D02*
X0178621Y0129593D01*
X0178621Y0130192D02*
X0178000Y0130192D01*
X0178000Y0130790D02*
X0178621Y0130790D01*
X0178621Y0131389D02*
X0178000Y0131389D01*
X0178000Y0131987D02*
X0178621Y0131987D01*
X0178621Y0132586D02*
X0178000Y0132586D01*
X0178000Y0133184D02*
X0178621Y0133184D01*
X0178621Y0133783D02*
X0178000Y0133783D01*
X0178000Y0134381D02*
X0178621Y0134381D01*
X0178621Y0134980D02*
X0178000Y0134980D01*
X0178000Y0135578D02*
X0178621Y0135578D01*
X0178621Y0136177D02*
X0178000Y0136177D01*
X0178000Y0136775D02*
X0178621Y0136775D01*
X0178621Y0137374D02*
X0178000Y0137374D01*
X0178000Y0137972D02*
X0178621Y0137972D01*
X0178621Y0138571D02*
X0178000Y0138571D01*
X0178000Y0139170D02*
X0178621Y0139170D01*
X0178621Y0139768D02*
X0178000Y0139768D01*
X0178000Y0140367D02*
X0178621Y0140367D01*
X0178621Y0140965D02*
X0178000Y0140965D01*
X0178000Y0141564D02*
X0178621Y0141564D01*
X0178621Y0142162D02*
X0178000Y0142162D01*
X0178000Y0142761D02*
X0178621Y0142761D01*
X0178621Y0143359D02*
X0178000Y0143359D01*
X0178000Y0143958D02*
X0178621Y0143958D01*
X0178621Y0144556D02*
X0178000Y0144556D01*
X0178000Y0145155D02*
X0178621Y0145155D01*
X0178621Y0145753D02*
X0178000Y0145753D01*
X0178000Y0146352D02*
X0178621Y0146352D01*
X0178621Y0146950D02*
X0178000Y0146950D01*
X0178000Y0147549D02*
X0178621Y0147549D01*
X0178621Y0148147D02*
X0178000Y0148147D01*
X0178000Y0148746D02*
X0178621Y0148746D01*
X0178621Y0149344D02*
X0178000Y0149344D01*
X0178000Y0149943D02*
X0178621Y0149943D01*
X0178621Y0150541D02*
X0178000Y0150541D01*
X0178000Y0151140D02*
X0178621Y0151140D01*
X0178621Y0151738D02*
X0178000Y0151738D01*
X0177941Y0152337D02*
X0178621Y0152337D01*
X0178621Y0152935D02*
X0177693Y0152935D01*
X0177445Y0153534D02*
X0178621Y0153534D01*
X0178621Y0154132D02*
X0177032Y0154132D01*
X0176433Y0154731D02*
X0178621Y0154731D01*
X0178621Y0155329D02*
X0175835Y0155329D01*
X0175236Y0155928D02*
X0178621Y0155928D01*
X0178621Y0156526D02*
X0174638Y0156526D01*
X0174039Y0157125D02*
X0178621Y0157125D01*
X0178621Y0157723D02*
X0173441Y0157723D01*
X0172549Y0158322D02*
X0178621Y0158322D01*
X0178621Y0158920D02*
X0139174Y0158920D01*
X0139174Y0158322D02*
X0160951Y0158322D01*
X0160059Y0157723D02*
X0139174Y0157723D01*
X0138954Y0157125D02*
X0159461Y0157125D01*
X0158862Y0156526D02*
X0138706Y0156526D01*
X0138458Y0155928D02*
X0158264Y0155928D01*
X0157665Y0155329D02*
X0138210Y0155329D01*
X0137807Y0154731D02*
X0157067Y0154731D01*
X0156468Y0154132D02*
X0137209Y0154132D01*
X0136610Y0153534D02*
X0155870Y0153534D01*
X0155271Y0152935D02*
X0135977Y0152935D01*
X0134532Y0152337D02*
X0154673Y0152337D01*
X0152094Y0151738D02*
X0129500Y0151738D01*
X0129500Y0151140D02*
X0151496Y0151140D01*
X0150897Y0150541D02*
X0129500Y0150541D01*
X0129701Y0149943D02*
X0150299Y0149943D01*
X0149700Y0149344D02*
X0130300Y0149344D01*
X0130898Y0148746D02*
X0149102Y0148746D01*
X0149100Y0148147D02*
X0130900Y0148147D01*
X0130900Y0147549D02*
X0149100Y0147549D01*
X0149100Y0146950D02*
X0130900Y0146950D01*
X0130900Y0146352D02*
X0149100Y0146352D01*
X0149100Y0145753D02*
X0130900Y0145753D01*
X0130900Y0145155D02*
X0149100Y0145155D01*
X0149100Y0144556D02*
X0130900Y0144556D01*
X0130900Y0143958D02*
X0149100Y0143958D01*
X0149597Y0143359D02*
X0130403Y0143359D01*
X0129804Y0142761D02*
X0150196Y0142761D01*
X0150794Y0142162D02*
X0129982Y0142162D01*
X0130400Y0141564D02*
X0151393Y0141564D01*
X0151991Y0140965D02*
X0130400Y0140965D01*
X0130400Y0140367D02*
X0161000Y0140367D01*
X0161000Y0140965D02*
X0158009Y0140965D01*
X0158607Y0141564D02*
X0161000Y0141564D01*
X0160794Y0142162D02*
X0159206Y0142162D01*
X0159804Y0142761D02*
X0160196Y0142761D01*
X0169000Y0133436D02*
X0169000Y0129800D01*
X0161605Y0129800D01*
X0159951Y0129115D01*
X0158685Y0127849D01*
X0152636Y0121800D01*
X0151344Y0121800D01*
X0149944Y0123200D01*
X0145900Y0123200D01*
X0145900Y0123400D01*
X0147200Y0123400D01*
X0147200Y0127000D01*
X0147800Y0127000D01*
X0147800Y0127600D01*
X0151400Y0127600D01*
X0151400Y0128915D01*
X0149515Y0130800D01*
X0165395Y0130800D01*
X0167049Y0131485D01*
X0168315Y0132751D01*
X0169000Y0133436D01*
X0169000Y0133184D02*
X0168748Y0133184D01*
X0169000Y0132586D02*
X0168150Y0132586D01*
X0167551Y0131987D02*
X0169000Y0131987D01*
X0169000Y0131389D02*
X0166817Y0131389D01*
X0169000Y0130790D02*
X0149525Y0130790D01*
X0150124Y0130192D02*
X0169000Y0130192D01*
X0161106Y0129593D02*
X0150722Y0129593D01*
X0151321Y0128995D02*
X0159831Y0128995D01*
X0159232Y0128396D02*
X0151400Y0128396D01*
X0151400Y0127798D02*
X0158634Y0127798D01*
X0158035Y0127199D02*
X0147800Y0127199D01*
X0147800Y0127000D02*
X0151400Y0127000D01*
X0151400Y0125685D01*
X0149115Y0123400D01*
X0147800Y0123400D01*
X0147800Y0127000D01*
X0147800Y0126601D02*
X0147200Y0126601D01*
X0147200Y0126002D02*
X0147800Y0126002D01*
X0147800Y0125404D02*
X0147200Y0125404D01*
X0147200Y0124805D02*
X0147800Y0124805D01*
X0147800Y0124207D02*
X0147200Y0124207D01*
X0147200Y0123608D02*
X0147800Y0123608D01*
X0149324Y0123608D02*
X0154444Y0123608D01*
X0153846Y0123010D02*
X0150134Y0123010D01*
X0150733Y0122411D02*
X0153247Y0122411D01*
X0152649Y0121813D02*
X0151331Y0121813D01*
X0149922Y0124207D02*
X0155043Y0124207D01*
X0155641Y0124805D02*
X0150521Y0124805D01*
X0151119Y0125404D02*
X0156240Y0125404D01*
X0156838Y0126002D02*
X0151400Y0126002D01*
X0151400Y0126601D02*
X0157437Y0126601D01*
X0141600Y0115828D02*
X0137336Y0115828D01*
X0137530Y0116426D02*
X0136738Y0116426D01*
X0136932Y0117025D02*
X0136139Y0117025D01*
X0136333Y0117623D02*
X0135541Y0117623D01*
X0135735Y0118222D02*
X0134942Y0118222D01*
X0135136Y0118820D02*
X0134344Y0118820D01*
X0134538Y0119419D02*
X0133745Y0119419D01*
X0134100Y0120017D02*
X0133147Y0120017D01*
X0134100Y0120616D02*
X0131840Y0120616D01*
X0134100Y0121214D02*
X0119000Y0121214D01*
X0119000Y0120616D02*
X0120160Y0120616D01*
X0119000Y0121813D02*
X0134100Y0121813D01*
X0134100Y0122411D02*
X0119000Y0122411D01*
X0118778Y0123010D02*
X0134100Y0123010D01*
X0134100Y0123608D02*
X0118530Y0123608D01*
X0118282Y0124207D02*
X0134100Y0124207D01*
X0134161Y0124805D02*
X0117939Y0124805D01*
X0117340Y0125404D02*
X0134760Y0125404D01*
X0135358Y0126002D02*
X0116742Y0126002D01*
X0115720Y0126601D02*
X0135500Y0126601D01*
X0135500Y0127199D02*
X0115000Y0127199D01*
X0115000Y0127798D02*
X0135500Y0127798D01*
X0135500Y0128396D02*
X0115000Y0128396D01*
X0115000Y0128995D02*
X0135500Y0128995D01*
X0135500Y0129593D02*
X0115000Y0129593D01*
X0115000Y0130192D02*
X0135500Y0130192D01*
X0135500Y0130790D02*
X0115000Y0130790D01*
X0115000Y0131389D02*
X0135500Y0131389D01*
X0135500Y0131987D02*
X0115000Y0131987D01*
X0115000Y0132586D02*
X0135500Y0132586D01*
X0135500Y0133184D02*
X0115000Y0133184D01*
X0115000Y0133783D02*
X0121673Y0133783D01*
X0121075Y0134381D02*
X0115000Y0134381D01*
X0109400Y0141564D02*
X0105000Y0141564D01*
X0105000Y0142162D02*
X0109998Y0142162D01*
X0110597Y0142761D02*
X0104766Y0142761D01*
X0104518Y0143359D02*
X0111540Y0143359D01*
X0108801Y0140965D02*
X0105000Y0140965D01*
X0105000Y0140367D02*
X0108203Y0140367D01*
X0107604Y0139768D02*
X0105000Y0139768D01*
X0105000Y0139170D02*
X0107006Y0139170D01*
X0106570Y0138571D02*
X0105000Y0138571D01*
X0104206Y0143958D02*
X0119100Y0143958D01*
X0119100Y0144556D02*
X0103608Y0144556D01*
X0103009Y0145155D02*
X0119100Y0145155D01*
X0119100Y0145753D02*
X0102411Y0145753D01*
X0101812Y0146352D02*
X0119100Y0146352D01*
X0119100Y0146950D02*
X0101214Y0146950D01*
X0100615Y0147549D02*
X0119100Y0147549D01*
X0119100Y0148147D02*
X0100017Y0148147D01*
X0099418Y0148746D02*
X0119102Y0148746D01*
X0119700Y0149344D02*
X0098820Y0149344D01*
X0098221Y0149943D02*
X0120299Y0149943D01*
X0120500Y0150541D02*
X0097020Y0150541D01*
X0092807Y0154731D02*
X0118193Y0154731D01*
X0117790Y0155329D02*
X0093210Y0155329D01*
X0093072Y0154996D02*
X0094174Y0157656D01*
X0094174Y0160535D01*
X0093072Y0163195D01*
X0091036Y0165230D01*
X0088377Y0166332D01*
X0077623Y0166332D01*
X0074964Y0165230D01*
X0072928Y0163195D01*
X0071826Y0160535D01*
X0071826Y0157656D01*
X0072928Y0154996D01*
X0074964Y0152960D01*
X0077623Y0151858D01*
X0088377Y0151858D01*
X0091036Y0152960D01*
X0093072Y0154996D01*
X0093458Y0155928D02*
X0117542Y0155928D01*
X0117294Y0156526D02*
X0093706Y0156526D01*
X0093954Y0157125D02*
X0117046Y0157125D01*
X0116826Y0157723D02*
X0094174Y0157723D01*
X0094174Y0158322D02*
X0116826Y0158322D01*
X0116826Y0158920D02*
X0094174Y0158920D01*
X0094174Y0159519D02*
X0116826Y0159519D01*
X0116826Y0160117D02*
X0094174Y0160117D01*
X0094099Y0160716D02*
X0116901Y0160716D01*
X0117149Y0161314D02*
X0093851Y0161314D01*
X0093603Y0161913D02*
X0117397Y0161913D01*
X0117645Y0162511D02*
X0111116Y0162511D01*
X0111113Y0162510D02*
X0111847Y0162884D01*
X0112514Y0163368D01*
X0113097Y0163951D01*
X0113581Y0164618D01*
X0113956Y0165353D01*
X0114210Y0166137D01*
X0114339Y0166951D01*
X0114339Y0171000D01*
X0109402Y0171000D01*
X0109402Y0162126D01*
X0109515Y0162126D01*
X0110329Y0162255D01*
X0111113Y0162510D01*
X0112158Y0163110D02*
X0117893Y0163110D01*
X0118442Y0163708D02*
X0112854Y0163708D01*
X0113355Y0164307D02*
X0119040Y0164307D01*
X0119639Y0164905D02*
X0113728Y0164905D01*
X0114005Y0165504D02*
X0120624Y0165504D01*
X0122069Y0166103D02*
X0114199Y0166103D01*
X0114300Y0166701D02*
X0178621Y0166701D01*
X0178621Y0166103D02*
X0133931Y0166103D01*
X0135376Y0165504D02*
X0178621Y0165504D01*
X0178621Y0164905D02*
X0136361Y0164905D01*
X0136960Y0164307D02*
X0178621Y0164307D01*
X0178621Y0163708D02*
X0137558Y0163708D01*
X0138107Y0163110D02*
X0178621Y0163110D01*
X0178621Y0162511D02*
X0138355Y0162511D01*
X0138603Y0161913D02*
X0178621Y0161913D01*
X0178621Y0161314D02*
X0138851Y0161314D01*
X0139099Y0160716D02*
X0178621Y0160716D01*
X0178621Y0160117D02*
X0139174Y0160117D01*
X0139174Y0159519D02*
X0178621Y0159519D01*
X0178621Y0167300D02*
X0114339Y0167300D01*
X0114339Y0167898D02*
X0178621Y0167898D01*
X0178621Y0168497D02*
X0114339Y0168497D01*
X0114339Y0169095D02*
X0178621Y0169095D01*
X0178621Y0169694D02*
X0114339Y0169694D01*
X0114339Y0170292D02*
X0178621Y0170292D01*
X0178621Y0170891D02*
X0114339Y0170891D01*
X0114339Y0171600D02*
X0114339Y0175649D01*
X0114210Y0176463D01*
X0113956Y0177247D01*
X0113581Y0177982D01*
X0113097Y0178649D01*
X0112514Y0179232D01*
X0111847Y0179716D01*
X0111113Y0180090D01*
X0110329Y0180345D01*
X0109515Y0180474D01*
X0109402Y0180474D01*
X0109402Y0171600D01*
X0108802Y0171600D01*
X0108802Y0171000D01*
X0103865Y0171000D01*
X0103865Y0166951D01*
X0103994Y0166137D01*
X0104249Y0165353D01*
X0104623Y0164618D01*
X0105108Y0163951D01*
X0105691Y0163368D01*
X0106358Y0162884D01*
X0107092Y0162510D01*
X0107876Y0162255D01*
X0108690Y0162126D01*
X0108802Y0162126D01*
X0108802Y0171000D01*
X0109402Y0171000D01*
X0109402Y0171600D01*
X0114339Y0171600D01*
X0114339Y0172088D02*
X0178621Y0172088D01*
X0178621Y0172686D02*
X0114339Y0172686D01*
X0114339Y0173285D02*
X0178621Y0173285D01*
X0178621Y0173883D02*
X0114339Y0173883D01*
X0114339Y0174482D02*
X0178621Y0174482D01*
X0178621Y0175080D02*
X0114339Y0175080D01*
X0114335Y0175679D02*
X0178621Y0175679D01*
X0178621Y0176277D02*
X0114240Y0176277D01*
X0114076Y0176876D02*
X0178621Y0176876D01*
X0178621Y0177474D02*
X0113840Y0177474D01*
X0113515Y0178073D02*
X0122622Y0178073D01*
X0122837Y0178003D02*
X0123651Y0177874D01*
X0127700Y0177874D01*
X0127700Y0182811D01*
X0128300Y0182811D01*
X0128300Y0177874D01*
X0132349Y0177874D01*
X0133163Y0178003D01*
X0133947Y0178258D01*
X0134682Y0178632D01*
X0135349Y0179116D01*
X0135932Y0179699D01*
X0136416Y0180366D01*
X0136790Y0181101D01*
X0137045Y0181885D01*
X0137174Y0182699D01*
X0137174Y0182811D01*
X0128300Y0182811D01*
X0128300Y0183411D01*
X0137174Y0183411D01*
X0137174Y0183523D01*
X0137045Y0184337D01*
X0136790Y0185121D01*
X0136416Y0185856D01*
X0135932Y0186523D01*
X0135349Y0187106D01*
X0134682Y0187590D01*
X0133947Y0187964D01*
X0133163Y0188219D01*
X0132349Y0188348D01*
X0128300Y0188348D01*
X0128300Y0183411D01*
X0127700Y0183411D01*
X0127700Y0182811D01*
X0118826Y0182811D01*
X0118826Y0182699D01*
X0118955Y0181885D01*
X0119210Y0181101D01*
X0119584Y0180366D01*
X0120068Y0179699D01*
X0120651Y0179116D01*
X0121318Y0178632D01*
X0122053Y0178258D01*
X0122837Y0178003D01*
X0121264Y0178671D02*
X0113074Y0178671D01*
X0112461Y0179270D02*
X0120498Y0179270D01*
X0119946Y0179868D02*
X0111548Y0179868D01*
X0109560Y0180467D02*
X0119533Y0180467D01*
X0119228Y0181065D02*
X0091772Y0181065D01*
X0091790Y0181101D02*
X0092045Y0181885D01*
X0092174Y0182699D01*
X0092174Y0182811D01*
X0083300Y0182811D01*
X0083300Y0177874D01*
X0087349Y0177874D01*
X0088163Y0178003D01*
X0088947Y0178258D01*
X0089682Y0178632D01*
X0090349Y0179116D01*
X0090932Y0179699D01*
X0091416Y0180366D01*
X0091790Y0181101D01*
X0091973Y0181664D02*
X0119027Y0181664D01*
X0118895Y0182262D02*
X0092105Y0182262D01*
X0092174Y0183411D02*
X0092174Y0183523D01*
X0092045Y0184337D01*
X0091790Y0185121D01*
X0091416Y0185856D01*
X0090932Y0186523D01*
X0090349Y0187106D01*
X0089682Y0187590D01*
X0088947Y0187964D01*
X0088163Y0188219D01*
X0087349Y0188348D01*
X0083300Y0188348D01*
X0083300Y0183411D01*
X0092174Y0183411D01*
X0092174Y0183459D02*
X0118826Y0183459D01*
X0118826Y0183411D02*
X0127700Y0183411D01*
X0127700Y0188348D01*
X0123651Y0188348D01*
X0122837Y0188219D01*
X0122053Y0187964D01*
X0121318Y0187590D01*
X0120651Y0187106D01*
X0120068Y0186523D01*
X0119584Y0185856D01*
X0119210Y0185121D01*
X0118955Y0184337D01*
X0118826Y0183523D01*
X0118826Y0183411D01*
X0118911Y0184058D02*
X0092089Y0184058D01*
X0091941Y0184656D02*
X0119059Y0184656D01*
X0119278Y0185255D02*
X0091722Y0185255D01*
X0091417Y0185853D02*
X0119583Y0185853D01*
X0120017Y0186452D02*
X0090983Y0186452D01*
X0090404Y0187050D02*
X0120596Y0187050D01*
X0121434Y0187649D02*
X0089566Y0187649D01*
X0087984Y0188247D02*
X0123016Y0188247D01*
X0127700Y0188247D02*
X0128300Y0188247D01*
X0128300Y0187649D02*
X0127700Y0187649D01*
X0127700Y0187050D02*
X0128300Y0187050D01*
X0128300Y0186452D02*
X0127700Y0186452D01*
X0127700Y0185853D02*
X0128300Y0185853D01*
X0128300Y0185255D02*
X0127700Y0185255D01*
X0127700Y0184656D02*
X0128300Y0184656D01*
X0128300Y0184058D02*
X0127700Y0184058D01*
X0127700Y0183459D02*
X0128300Y0183459D01*
X0128300Y0182861D02*
X0178621Y0182861D01*
X0178621Y0183459D02*
X0137174Y0183459D01*
X0137089Y0184058D02*
X0178621Y0184058D01*
X0178621Y0184656D02*
X0136941Y0184656D01*
X0136722Y0185255D02*
X0178621Y0185255D01*
X0178621Y0185853D02*
X0136417Y0185853D01*
X0135983Y0186452D02*
X0178621Y0186452D01*
X0178621Y0187050D02*
X0135404Y0187050D01*
X0134566Y0187649D02*
X0178621Y0187649D01*
X0178621Y0188247D02*
X0132984Y0188247D01*
X0137105Y0182262D02*
X0178621Y0182262D01*
X0178621Y0181664D02*
X0136973Y0181664D01*
X0136772Y0181065D02*
X0178621Y0181065D01*
X0178621Y0180467D02*
X0136467Y0180467D01*
X0136054Y0179868D02*
X0178621Y0179868D01*
X0178621Y0179270D02*
X0135502Y0179270D01*
X0134736Y0178671D02*
X0178621Y0178671D01*
X0178621Y0178073D02*
X0133378Y0178073D01*
X0128300Y0178073D02*
X0127700Y0178073D01*
X0127700Y0178671D02*
X0128300Y0178671D01*
X0128300Y0179270D02*
X0127700Y0179270D01*
X0127700Y0179868D02*
X0128300Y0179868D01*
X0128300Y0180467D02*
X0127700Y0180467D01*
X0127700Y0181065D02*
X0128300Y0181065D01*
X0128300Y0181664D02*
X0127700Y0181664D01*
X0127700Y0182262D02*
X0128300Y0182262D01*
X0127700Y0182861D02*
X0083300Y0182861D01*
X0083300Y0182811D02*
X0083300Y0183411D01*
X0082700Y0183411D01*
X0082700Y0182811D01*
X0083300Y0182811D01*
X0083300Y0182262D02*
X0082700Y0182262D01*
X0082700Y0182811D02*
X0082700Y0177874D01*
X0078651Y0177874D01*
X0077837Y0178003D01*
X0077053Y0178258D01*
X0076318Y0178632D01*
X0075651Y0179116D01*
X0075068Y0179699D01*
X0074584Y0180366D01*
X0074210Y0181101D01*
X0073955Y0181885D01*
X0073826Y0182699D01*
X0073826Y0182811D01*
X0082700Y0182811D01*
X0082700Y0182861D02*
X0012300Y0182861D01*
X0012300Y0183459D02*
X0073826Y0183459D01*
X0073826Y0183411D02*
X0082700Y0183411D01*
X0082700Y0188348D01*
X0078651Y0188348D01*
X0077837Y0188219D01*
X0077053Y0187964D01*
X0076318Y0187590D01*
X0075651Y0187106D01*
X0075068Y0186523D01*
X0074584Y0185856D01*
X0074210Y0185121D01*
X0073955Y0184337D01*
X0073826Y0183523D01*
X0073826Y0183411D01*
X0073911Y0184058D02*
X0012300Y0184058D01*
X0012300Y0184656D02*
X0074059Y0184656D01*
X0074278Y0185255D02*
X0012300Y0185255D01*
X0012300Y0185853D02*
X0074583Y0185853D01*
X0075017Y0186452D02*
X0012300Y0186452D01*
X0012300Y0187050D02*
X0075596Y0187050D01*
X0076434Y0187649D02*
X0012300Y0187649D01*
X0012300Y0188247D02*
X0078016Y0188247D01*
X0082700Y0188247D02*
X0083300Y0188247D01*
X0083300Y0187649D02*
X0082700Y0187649D01*
X0082700Y0187050D02*
X0083300Y0187050D01*
X0083300Y0186452D02*
X0082700Y0186452D01*
X0082700Y0185853D02*
X0083300Y0185853D01*
X0083300Y0185255D02*
X0082700Y0185255D01*
X0082700Y0184656D02*
X0083300Y0184656D01*
X0083300Y0184058D02*
X0082700Y0184058D01*
X0082700Y0183459D02*
X0083300Y0183459D01*
X0083300Y0181664D02*
X0082700Y0181664D01*
X0082700Y0181065D02*
X0083300Y0181065D01*
X0083300Y0180467D02*
X0082700Y0180467D01*
X0082700Y0179868D02*
X0083300Y0179868D01*
X0083300Y0179270D02*
X0082700Y0179270D01*
X0082700Y0178671D02*
X0083300Y0178671D01*
X0083300Y0178073D02*
X0082700Y0178073D01*
X0077622Y0178073D02*
X0068515Y0178073D01*
X0068581Y0177982D02*
X0068097Y0178649D01*
X0067514Y0179232D01*
X0066847Y0179716D01*
X0066113Y0180090D01*
X0065329Y0180345D01*
X0064515Y0180474D01*
X0064402Y0180474D01*
X0064402Y0171600D01*
X0063802Y0171600D01*
X0063802Y0171000D01*
X0058865Y0171000D01*
X0058865Y0166951D01*
X0058994Y0166137D01*
X0059249Y0165353D01*
X0059623Y0164618D01*
X0060108Y0163951D01*
X0060691Y0163368D01*
X0061358Y0162884D01*
X0062092Y0162510D01*
X0062876Y0162255D01*
X0063690Y0162126D01*
X0063802Y0162126D01*
X0063802Y0171000D01*
X0064402Y0171000D01*
X0064402Y0162126D01*
X0064515Y0162126D01*
X0065329Y0162255D01*
X0066113Y0162510D01*
X0066847Y0162884D01*
X0067514Y0163368D01*
X0068097Y0163951D01*
X0068581Y0164618D01*
X0068956Y0165353D01*
X0069210Y0166137D01*
X0069339Y0166951D01*
X0069339Y0171000D01*
X0064402Y0171000D01*
X0064402Y0171600D01*
X0069339Y0171600D01*
X0069339Y0175649D01*
X0069210Y0176463D01*
X0068956Y0177247D01*
X0068581Y0177982D01*
X0068840Y0177474D02*
X0104365Y0177474D01*
X0104249Y0177247D02*
X0103994Y0176463D01*
X0103865Y0175649D01*
X0103865Y0171600D01*
X0108802Y0171600D01*
X0108802Y0180474D01*
X0108690Y0180474D01*
X0107876Y0180345D01*
X0107092Y0180090D01*
X0106358Y0179716D01*
X0105691Y0179232D01*
X0105108Y0178649D01*
X0104623Y0177982D01*
X0104249Y0177247D01*
X0104128Y0176876D02*
X0069076Y0176876D01*
X0069240Y0176277D02*
X0103965Y0176277D01*
X0103870Y0175679D02*
X0069335Y0175679D01*
X0069339Y0175080D02*
X0103865Y0175080D01*
X0103865Y0174482D02*
X0069339Y0174482D01*
X0069339Y0173883D02*
X0103865Y0173883D01*
X0103865Y0173285D02*
X0069339Y0173285D01*
X0069339Y0172686D02*
X0103865Y0172686D01*
X0103865Y0172088D02*
X0069339Y0172088D01*
X0069339Y0170891D02*
X0103865Y0170891D01*
X0103865Y0170292D02*
X0069339Y0170292D01*
X0069339Y0169694D02*
X0103865Y0169694D01*
X0103865Y0169095D02*
X0069339Y0169095D01*
X0069339Y0168497D02*
X0103865Y0168497D01*
X0103865Y0167898D02*
X0069339Y0167898D01*
X0069339Y0167300D02*
X0103865Y0167300D01*
X0103905Y0166701D02*
X0069300Y0166701D01*
X0069199Y0166103D02*
X0077069Y0166103D01*
X0075624Y0165504D02*
X0069005Y0165504D01*
X0068728Y0164905D02*
X0074639Y0164905D01*
X0074040Y0164307D02*
X0068355Y0164307D01*
X0067854Y0163708D02*
X0073442Y0163708D01*
X0072893Y0163110D02*
X0067158Y0163110D01*
X0066116Y0162511D02*
X0072645Y0162511D01*
X0072397Y0161913D02*
X0012300Y0161913D01*
X0012300Y0162511D02*
X0062089Y0162511D01*
X0061046Y0163110D02*
X0012300Y0163110D01*
X0012300Y0163708D02*
X0060351Y0163708D01*
X0059849Y0164307D02*
X0012300Y0164307D01*
X0012300Y0164905D02*
X0059477Y0164905D01*
X0059200Y0165504D02*
X0012300Y0165504D01*
X0012300Y0166103D02*
X0059005Y0166103D01*
X0058905Y0166701D02*
X0012300Y0166701D01*
X0012300Y0167300D02*
X0058865Y0167300D01*
X0058865Y0167898D02*
X0012300Y0167898D01*
X0012300Y0168497D02*
X0058865Y0168497D01*
X0058865Y0169095D02*
X0012300Y0169095D01*
X0012300Y0169694D02*
X0058865Y0169694D01*
X0058865Y0170292D02*
X0012300Y0170292D01*
X0012300Y0170891D02*
X0058865Y0170891D01*
X0058865Y0171600D02*
X0063802Y0171600D01*
X0063802Y0180474D01*
X0063690Y0180474D01*
X0062876Y0180345D01*
X0062092Y0180090D01*
X0061358Y0179716D01*
X0060691Y0179232D01*
X0060108Y0178649D01*
X0059623Y0177982D01*
X0059249Y0177247D01*
X0058994Y0176463D01*
X0058865Y0175649D01*
X0058865Y0171600D01*
X0058865Y0172088D02*
X0012300Y0172088D01*
X0012300Y0172686D02*
X0058865Y0172686D01*
X0058865Y0173285D02*
X0012300Y0173285D01*
X0012300Y0173883D02*
X0058865Y0173883D01*
X0058865Y0174482D02*
X0012300Y0174482D01*
X0012300Y0175080D02*
X0058865Y0175080D01*
X0058870Y0175679D02*
X0012300Y0175679D01*
X0012300Y0176277D02*
X0058965Y0176277D01*
X0059128Y0176876D02*
X0012300Y0176876D01*
X0012300Y0177474D02*
X0059365Y0177474D01*
X0059689Y0178073D02*
X0012300Y0178073D01*
X0012300Y0178671D02*
X0060130Y0178671D01*
X0060743Y0179270D02*
X0012300Y0179270D01*
X0012300Y0179868D02*
X0061656Y0179868D01*
X0063645Y0180467D02*
X0012300Y0180467D01*
X0012300Y0181065D02*
X0074228Y0181065D01*
X0074027Y0181664D02*
X0012300Y0181664D01*
X0012300Y0182262D02*
X0073895Y0182262D01*
X0074533Y0180467D02*
X0064560Y0180467D01*
X0064402Y0180467D02*
X0063802Y0180467D01*
X0063802Y0179868D02*
X0064402Y0179868D01*
X0064402Y0179270D02*
X0063802Y0179270D01*
X0063802Y0178671D02*
X0064402Y0178671D01*
X0064402Y0178073D02*
X0063802Y0178073D01*
X0063802Y0177474D02*
X0064402Y0177474D01*
X0064402Y0176876D02*
X0063802Y0176876D01*
X0063802Y0176277D02*
X0064402Y0176277D01*
X0064402Y0175679D02*
X0063802Y0175679D01*
X0063802Y0175080D02*
X0064402Y0175080D01*
X0064402Y0174482D02*
X0063802Y0174482D01*
X0063802Y0173883D02*
X0064402Y0173883D01*
X0064402Y0173285D02*
X0063802Y0173285D01*
X0063802Y0172686D02*
X0064402Y0172686D01*
X0064402Y0172088D02*
X0063802Y0172088D01*
X0063802Y0171489D02*
X0012300Y0171489D01*
X0012300Y0161314D02*
X0072149Y0161314D01*
X0071901Y0160716D02*
X0012300Y0160716D01*
X0012300Y0160117D02*
X0071826Y0160117D01*
X0071826Y0159519D02*
X0012300Y0159519D01*
X0012300Y0158920D02*
X0071826Y0158920D01*
X0071826Y0158322D02*
X0012300Y0158322D01*
X0012300Y0157723D02*
X0071826Y0157723D01*
X0072046Y0157125D02*
X0012300Y0157125D01*
X0012300Y0156526D02*
X0017944Y0156526D01*
X0018605Y0156800D02*
X0016951Y0156115D01*
X0015685Y0154849D01*
X0013685Y0152849D01*
X0013000Y0151195D01*
X0013000Y0128405D01*
X0013685Y0126751D01*
X0014951Y0125485D01*
X0017951Y0122485D01*
X0019605Y0121800D01*
X0041656Y0121800D01*
X0043056Y0120400D01*
X0047100Y0120400D01*
X0047100Y0120200D01*
X0045800Y0120200D01*
X0045800Y0116600D01*
X0049356Y0116600D01*
X0050556Y0115400D01*
X0055444Y0115400D01*
X0058900Y0118856D01*
X0058900Y0123744D01*
X0058000Y0124644D01*
X0058000Y0133195D01*
X0057315Y0134849D01*
X0055315Y0136849D01*
X0054049Y0138115D01*
X0052395Y0138800D01*
X0030000Y0138800D01*
X0030000Y0139956D01*
X0031400Y0141356D01*
X0031400Y0146036D01*
X0032100Y0145336D01*
X0032100Y0143856D01*
X0035556Y0140400D01*
X0040444Y0140400D01*
X0043900Y0143856D01*
X0043900Y0148744D01*
X0040444Y0152200D01*
X0037964Y0152200D01*
X0034049Y0156115D01*
X0032395Y0156800D01*
X0018605Y0156800D01*
X0016764Y0155928D02*
X0012300Y0155928D01*
X0012300Y0155329D02*
X0016165Y0155329D01*
X0015567Y0154731D02*
X0012300Y0154731D01*
X0012300Y0154132D02*
X0014968Y0154132D01*
X0014370Y0153534D02*
X0012300Y0153534D01*
X0012300Y0152935D02*
X0013771Y0152935D01*
X0013473Y0152337D02*
X0012300Y0152337D01*
X0012300Y0151738D02*
X0013225Y0151738D01*
X0013000Y0151140D02*
X0012300Y0151140D01*
X0012300Y0150541D02*
X0013000Y0150541D01*
X0013000Y0149943D02*
X0012300Y0149943D01*
X0012300Y0149344D02*
X0013000Y0149344D01*
X0013000Y0148746D02*
X0012300Y0148746D01*
X0012300Y0148147D02*
X0013000Y0148147D01*
X0013000Y0147549D02*
X0012300Y0147549D01*
X0012300Y0146950D02*
X0013000Y0146950D01*
X0013000Y0146352D02*
X0012300Y0146352D01*
X0012300Y0145753D02*
X0013000Y0145753D01*
X0013000Y0145155D02*
X0012300Y0145155D01*
X0012300Y0144556D02*
X0013000Y0144556D01*
X0013000Y0143958D02*
X0012300Y0143958D01*
X0012300Y0143359D02*
X0013000Y0143359D01*
X0013000Y0142761D02*
X0012300Y0142761D01*
X0012300Y0142162D02*
X0013000Y0142162D01*
X0013000Y0141564D02*
X0012300Y0141564D01*
X0012300Y0140965D02*
X0013000Y0140965D01*
X0013000Y0140367D02*
X0012300Y0140367D01*
X0012300Y0139768D02*
X0013000Y0139768D01*
X0013000Y0139170D02*
X0012300Y0139170D01*
X0012300Y0138571D02*
X0013000Y0138571D01*
X0013000Y0137972D02*
X0012300Y0137972D01*
X0012300Y0137374D02*
X0013000Y0137374D01*
X0013000Y0136775D02*
X0012300Y0136775D01*
X0012300Y0136177D02*
X0013000Y0136177D01*
X0013000Y0135578D02*
X0012300Y0135578D01*
X0012300Y0134980D02*
X0013000Y0134980D01*
X0013000Y0134381D02*
X0012300Y0134381D01*
X0012300Y0133783D02*
X0013000Y0133783D01*
X0013000Y0133184D02*
X0012300Y0133184D01*
X0012300Y0132586D02*
X0013000Y0132586D01*
X0013000Y0131987D02*
X0012300Y0131987D01*
X0012300Y0131389D02*
X0013000Y0131389D01*
X0013000Y0130790D02*
X0012300Y0130790D01*
X0012300Y0130192D02*
X0013000Y0130192D01*
X0013000Y0129593D02*
X0012300Y0129593D01*
X0012300Y0128995D02*
X0013000Y0128995D01*
X0013004Y0128396D02*
X0012300Y0128396D01*
X0012300Y0127798D02*
X0013251Y0127798D01*
X0013499Y0127199D02*
X0012300Y0127199D01*
X0012300Y0126601D02*
X0013835Y0126601D01*
X0014434Y0126002D02*
X0012300Y0126002D01*
X0012300Y0125404D02*
X0015032Y0125404D01*
X0015631Y0124805D02*
X0012300Y0124805D01*
X0012300Y0124207D02*
X0016229Y0124207D01*
X0016828Y0123608D02*
X0012300Y0123608D01*
X0012300Y0123010D02*
X0017426Y0123010D01*
X0018129Y0122411D02*
X0012300Y0122411D01*
X0012300Y0121813D02*
X0019574Y0121813D01*
X0022176Y0118820D02*
X0012300Y0118820D01*
X0012300Y0118222D02*
X0021578Y0118222D01*
X0020979Y0117623D02*
X0012300Y0117623D01*
X0012300Y0117025D02*
X0020381Y0117025D01*
X0019782Y0116426D02*
X0012300Y0116426D01*
X0012300Y0115828D02*
X0019600Y0115828D01*
X0019600Y0115229D02*
X0012300Y0115229D01*
X0012300Y0114631D02*
X0019600Y0114631D01*
X0019368Y0114032D02*
X0012300Y0114032D01*
X0012300Y0113434D02*
X0018770Y0113434D01*
X0018171Y0112835D02*
X0012300Y0112835D01*
X0012300Y0112237D02*
X0017573Y0112237D01*
X0016974Y0111638D02*
X0012300Y0111638D01*
X0012300Y0111039D02*
X0016376Y0111039D01*
X0015777Y0110441D02*
X0012300Y0110441D01*
X0012300Y0109842D02*
X0015475Y0109842D01*
X0015227Y0109244D02*
X0012300Y0109244D01*
X0012300Y0108645D02*
X0015000Y0108645D01*
X0015000Y0108047D02*
X0012300Y0108047D01*
X0012300Y0107448D02*
X0015000Y0107448D01*
X0015000Y0106850D02*
X0012300Y0106850D01*
X0012300Y0106251D02*
X0015000Y0106251D01*
X0015000Y0105653D02*
X0012300Y0105653D01*
X0012300Y0105054D02*
X0015000Y0105054D01*
X0015000Y0104456D02*
X0012300Y0104456D01*
X0012300Y0103857D02*
X0015000Y0103857D01*
X0015000Y0103259D02*
X0012300Y0103259D01*
X0012300Y0102660D02*
X0015000Y0102660D01*
X0015000Y0102062D02*
X0012300Y0102062D01*
X0012300Y0101463D02*
X0015000Y0101463D01*
X0015000Y0100865D02*
X0012300Y0100865D01*
X0012300Y0100266D02*
X0015000Y0100266D01*
X0015000Y0099668D02*
X0012300Y0099668D01*
X0012300Y0099069D02*
X0015000Y0099069D01*
X0015000Y0098471D02*
X0012300Y0098471D01*
X0012300Y0097872D02*
X0015000Y0097872D01*
X0015000Y0097274D02*
X0012300Y0097274D01*
X0012300Y0096675D02*
X0015000Y0096675D01*
X0015000Y0096077D02*
X0012300Y0096077D01*
X0012300Y0095478D02*
X0015000Y0095478D01*
X0015000Y0094880D02*
X0012300Y0094880D01*
X0012300Y0094281D02*
X0015000Y0094281D01*
X0015000Y0093683D02*
X0012300Y0093683D01*
X0012300Y0093084D02*
X0015000Y0093084D01*
X0015000Y0092486D02*
X0012300Y0092486D01*
X0012300Y0091887D02*
X0015000Y0091887D01*
X0015000Y0091289D02*
X0012300Y0091289D01*
X0012300Y0090690D02*
X0015000Y0090690D01*
X0015000Y0090092D02*
X0012300Y0090092D01*
X0012300Y0089493D02*
X0015000Y0089493D01*
X0015000Y0088895D02*
X0012300Y0088895D01*
X0012300Y0088296D02*
X0015000Y0088296D01*
X0015000Y0087698D02*
X0012300Y0087698D01*
X0012300Y0087099D02*
X0015000Y0087099D01*
X0015000Y0086501D02*
X0012300Y0086501D01*
X0012300Y0085902D02*
X0015000Y0085902D01*
X0015000Y0085303D02*
X0012300Y0085303D01*
X0012300Y0084705D02*
X0015000Y0084705D01*
X0015000Y0084106D02*
X0012300Y0084106D01*
X0012300Y0083508D02*
X0015000Y0083508D01*
X0015000Y0082909D02*
X0012300Y0082909D01*
X0012300Y0082311D02*
X0015000Y0082311D01*
X0015000Y0081712D02*
X0012300Y0081712D01*
X0012300Y0081114D02*
X0015000Y0081114D01*
X0015000Y0080515D02*
X0012300Y0080515D01*
X0012300Y0079917D02*
X0015000Y0079917D01*
X0015000Y0079318D02*
X0012300Y0079318D01*
X0012300Y0078720D02*
X0015000Y0078720D01*
X0015000Y0078121D02*
X0012300Y0078121D01*
X0012300Y0077523D02*
X0015000Y0077523D01*
X0015000Y0076924D02*
X0012300Y0076924D01*
X0012300Y0076326D02*
X0015000Y0076326D01*
X0015000Y0075727D02*
X0012300Y0075727D01*
X0012300Y0075129D02*
X0015000Y0075129D01*
X0015000Y0074530D02*
X0012300Y0074530D01*
X0012300Y0073932D02*
X0015000Y0073932D01*
X0015000Y0073333D02*
X0012300Y0073333D01*
X0012300Y0072735D02*
X0015000Y0072735D01*
X0015000Y0072136D02*
X0012300Y0072136D01*
X0012300Y0071538D02*
X0015000Y0071538D01*
X0015000Y0070939D02*
X0012300Y0070939D01*
X0012300Y0070341D02*
X0015000Y0070341D01*
X0015000Y0069742D02*
X0012300Y0069742D01*
X0012300Y0069144D02*
X0015000Y0069144D01*
X0015000Y0068545D02*
X0012300Y0068545D01*
X0012300Y0067947D02*
X0015000Y0067947D01*
X0015000Y0067348D02*
X0012300Y0067348D01*
X0012300Y0066750D02*
X0015000Y0066750D01*
X0015000Y0066151D02*
X0012300Y0066151D01*
X0012300Y0065553D02*
X0015000Y0065553D01*
X0015000Y0064954D02*
X0012300Y0064954D01*
X0012300Y0064356D02*
X0015000Y0064356D01*
X0015000Y0063757D02*
X0012300Y0063757D01*
X0012300Y0063159D02*
X0015000Y0063159D01*
X0015000Y0062560D02*
X0012300Y0062560D01*
X0012300Y0061962D02*
X0015000Y0061962D01*
X0015000Y0061363D02*
X0012300Y0061363D01*
X0012300Y0060765D02*
X0015000Y0060765D01*
X0015000Y0060166D02*
X0012300Y0060166D01*
X0012300Y0059568D02*
X0015000Y0059568D01*
X0015000Y0058969D02*
X0012300Y0058969D01*
X0012300Y0058370D02*
X0015014Y0058370D01*
X0015262Y0057772D02*
X0012300Y0057772D01*
X0012300Y0057173D02*
X0015510Y0057173D01*
X0015861Y0056575D02*
X0012300Y0056575D01*
X0012300Y0055976D02*
X0016460Y0055976D01*
X0017058Y0055378D02*
X0012300Y0055378D01*
X0012300Y0054779D02*
X0017657Y0054779D01*
X0018255Y0054181D02*
X0012300Y0054181D01*
X0012300Y0053582D02*
X0018854Y0053582D01*
X0019452Y0052984D02*
X0012300Y0052984D01*
X0012300Y0052385D02*
X0020051Y0052385D01*
X0020649Y0051787D02*
X0012300Y0051787D01*
X0012300Y0051188D02*
X0021248Y0051188D01*
X0021846Y0050590D02*
X0012300Y0050590D01*
X0012300Y0049991D02*
X0022445Y0049991D01*
X0023043Y0049393D02*
X0012300Y0049393D01*
X0012300Y0048794D02*
X0023642Y0048794D01*
X0024240Y0048196D02*
X0012300Y0048196D01*
X0012300Y0047597D02*
X0024839Y0047597D01*
X0025437Y0046999D02*
X0012300Y0046999D01*
X0012300Y0046400D02*
X0026036Y0046400D01*
X0026634Y0045802D02*
X0012300Y0045802D01*
X0012300Y0045203D02*
X0027233Y0045203D01*
X0028369Y0044605D02*
X0012300Y0044605D01*
X0012300Y0044006D02*
X0033384Y0044006D01*
X0033198Y0043408D02*
X0012300Y0043408D01*
X0012300Y0042809D02*
X0032600Y0042809D01*
X0032094Y0042211D02*
X0012300Y0042211D01*
X0012300Y0041612D02*
X0031846Y0041612D01*
X0031598Y0041014D02*
X0012300Y0041014D01*
X0012300Y0040415D02*
X0031350Y0040415D01*
X0031200Y0039817D02*
X0012300Y0039817D01*
X0012300Y0039218D02*
X0031200Y0039218D01*
X0031200Y0038620D02*
X0012300Y0038620D01*
X0012300Y0038021D02*
X0031200Y0038021D01*
X0031251Y0037423D02*
X0012300Y0037423D01*
X0012300Y0036824D02*
X0031499Y0036824D01*
X0031747Y0036226D02*
X0012300Y0036226D01*
X0012300Y0035627D02*
X0031995Y0035627D01*
X0032362Y0035029D02*
X0012300Y0035029D01*
X0012300Y0034430D02*
X0032960Y0034430D01*
X0033559Y0033832D02*
X0012300Y0033832D01*
X0012300Y0033233D02*
X0034477Y0033233D01*
X0035922Y0032634D02*
X0012300Y0032634D01*
X0012300Y0032036D02*
X0074746Y0032036D01*
X0074700Y0032634D02*
X0062578Y0032634D01*
X0064023Y0033233D02*
X0074700Y0033233D01*
X0074700Y0033832D02*
X0064941Y0033832D01*
X0065540Y0034430D02*
X0074700Y0034430D01*
X0074700Y0035029D02*
X0066138Y0035029D01*
X0066505Y0035627D02*
X0074700Y0035627D01*
X0074700Y0036226D02*
X0066753Y0036226D01*
X0067001Y0036824D02*
X0074700Y0036824D01*
X0074700Y0037423D02*
X0067249Y0037423D01*
X0067300Y0038021D02*
X0074700Y0038021D01*
X0074700Y0038620D02*
X0067300Y0038620D01*
X0067300Y0039218D02*
X0074700Y0039218D01*
X0074700Y0039817D02*
X0067300Y0039817D01*
X0067150Y0040415D02*
X0074700Y0040415D01*
X0074700Y0041014D02*
X0066902Y0041014D01*
X0066654Y0041612D02*
X0074700Y0041612D01*
X0074700Y0042211D02*
X0066406Y0042211D01*
X0065900Y0042809D02*
X0074700Y0042809D01*
X0074700Y0043408D02*
X0065302Y0043408D01*
X0065116Y0044006D02*
X0074700Y0044006D01*
X0074700Y0044605D02*
X0065714Y0044605D01*
X0069369Y0045203D02*
X0074700Y0045203D01*
X0074700Y0045802D02*
X0070366Y0045802D01*
X0070964Y0046400D02*
X0074456Y0046400D01*
X0073857Y0046999D02*
X0071563Y0046999D01*
X0072161Y0047597D02*
X0073259Y0047597D01*
X0072800Y0048196D02*
X0072760Y0048196D01*
X0086300Y0045802D02*
X0105756Y0045802D01*
X0104456Y0046400D02*
X0086544Y0046400D01*
X0087143Y0046999D02*
X0103857Y0046999D01*
X0103259Y0047597D02*
X0087741Y0047597D01*
X0088200Y0048196D02*
X0102800Y0048196D01*
X0102552Y0048794D02*
X0088448Y0048794D01*
X0088696Y0049393D02*
X0102304Y0049393D01*
X0102056Y0049991D02*
X0088944Y0049991D01*
X0089000Y0050590D02*
X0102000Y0050590D01*
X0102000Y0051188D02*
X0089000Y0051188D01*
X0089000Y0051787D02*
X0102000Y0051787D01*
X0102000Y0052385D02*
X0089000Y0052385D01*
X0088789Y0052984D02*
X0102211Y0052984D01*
X0102459Y0053582D02*
X0088541Y0053582D01*
X0088293Y0054181D02*
X0102707Y0054181D01*
X0103036Y0054779D02*
X0087964Y0054779D01*
X0087366Y0055378D02*
X0103634Y0055378D01*
X0104233Y0055976D02*
X0086767Y0055976D01*
X0086719Y0056575D02*
X0104281Y0056575D01*
X0103683Y0057173D02*
X0087317Y0057173D01*
X0087916Y0057772D02*
X0103084Y0057772D01*
X0102727Y0058370D02*
X0088273Y0058370D01*
X0088521Y0058969D02*
X0102479Y0058969D01*
X0102231Y0059568D02*
X0088768Y0059568D01*
X0089000Y0060166D02*
X0102000Y0060166D01*
X0102000Y0060765D02*
X0089000Y0060765D01*
X0089000Y0061363D02*
X0102000Y0061363D01*
X0102000Y0061962D02*
X0089000Y0061962D01*
X0088964Y0062560D02*
X0102036Y0062560D01*
X0102284Y0063159D02*
X0088716Y0063159D01*
X0088468Y0063757D02*
X0102532Y0063757D01*
X0102780Y0064356D02*
X0088220Y0064356D01*
X0087790Y0064954D02*
X0103210Y0064954D01*
X0103809Y0065553D02*
X0087191Y0065553D01*
X0086593Y0066151D02*
X0104407Y0066151D01*
X0104106Y0066750D02*
X0086894Y0066750D01*
X0087492Y0067348D02*
X0103508Y0067348D01*
X0102909Y0067947D02*
X0088091Y0067947D01*
X0088345Y0068545D02*
X0102655Y0068545D01*
X0102407Y0069144D02*
X0088593Y0069144D01*
X0088841Y0069742D02*
X0102159Y0069742D01*
X0102000Y0070341D02*
X0089000Y0070341D01*
X0089000Y0070939D02*
X0102000Y0070939D01*
X0102000Y0071538D02*
X0089000Y0071538D01*
X0089000Y0072136D02*
X0102000Y0072136D01*
X0102108Y0072735D02*
X0088892Y0072735D01*
X0088644Y0073333D02*
X0102356Y0073333D01*
X0102604Y0073932D02*
X0088396Y0073932D01*
X0088148Y0074530D02*
X0102852Y0074530D01*
X0103385Y0075129D02*
X0087615Y0075129D01*
X0087017Y0075727D02*
X0103983Y0075727D01*
X0104616Y0076326D02*
X0086384Y0076326D01*
X0084939Y0076924D02*
X0106061Y0076924D01*
X0106053Y0077844D02*
X0106762Y0077550D01*
X0107516Y0077400D01*
X0110200Y0077400D01*
X0110200Y0081000D01*
X0110800Y0081000D01*
X0110800Y0081600D01*
X0110200Y0081600D01*
X0110200Y0085200D01*
X0107516Y0085200D01*
X0106762Y0085050D01*
X0106053Y0084756D01*
X0105414Y0084329D01*
X0104871Y0083786D01*
X0104444Y0083147D01*
X0104150Y0082438D01*
X0104000Y0081684D01*
X0104000Y0081600D01*
X0110200Y0081600D01*
X0110200Y0081000D01*
X0104000Y0081000D01*
X0104000Y0080916D01*
X0104150Y0080162D01*
X0104444Y0079453D01*
X0104871Y0078814D01*
X0105414Y0078271D01*
X0106053Y0077844D01*
X0105637Y0078121D02*
X0085363Y0078121D01*
X0085586Y0078271D02*
X0086129Y0078814D01*
X0086556Y0079453D01*
X0086850Y0080162D01*
X0087000Y0080916D01*
X0087000Y0081000D01*
X0080800Y0081000D01*
X0080800Y0081600D01*
X0080200Y0081600D01*
X0080200Y0085200D01*
X0077516Y0085200D01*
X0076762Y0085050D01*
X0076053Y0084756D01*
X0075414Y0084329D01*
X0074871Y0083786D01*
X0074444Y0083147D01*
X0074150Y0082438D01*
X0074000Y0081684D01*
X0074000Y0081600D01*
X0080200Y0081600D01*
X0080200Y0081000D01*
X0080800Y0081000D01*
X0080800Y0077400D01*
X0083484Y0077400D01*
X0084238Y0077550D01*
X0084947Y0077844D01*
X0085586Y0078271D01*
X0086035Y0078720D02*
X0104965Y0078720D01*
X0104534Y0079318D02*
X0086466Y0079318D01*
X0086748Y0079917D02*
X0104252Y0079917D01*
X0104080Y0080515D02*
X0086920Y0080515D01*
X0087000Y0081600D02*
X0087000Y0081684D01*
X0086850Y0082438D01*
X0086556Y0083147D01*
X0086129Y0083786D01*
X0085586Y0084329D01*
X0084947Y0084756D01*
X0084238Y0085050D01*
X0083484Y0085200D01*
X0080800Y0085200D01*
X0080800Y0081600D01*
X0087000Y0081600D01*
X0086994Y0081712D02*
X0104006Y0081712D01*
X0104125Y0082311D02*
X0086875Y0082311D01*
X0086655Y0082909D02*
X0104345Y0082909D01*
X0104685Y0083508D02*
X0086315Y0083508D01*
X0085809Y0084106D02*
X0105191Y0084106D01*
X0105976Y0084705D02*
X0085024Y0084705D01*
X0084238Y0087550D02*
X0084947Y0087844D01*
X0085586Y0088271D01*
X0086129Y0088814D01*
X0086556Y0089453D01*
X0086850Y0090162D01*
X0087000Y0090916D01*
X0087000Y0091000D01*
X0080800Y0091000D01*
X0080800Y0091600D01*
X0080200Y0091600D01*
X0080200Y0095200D01*
X0077516Y0095200D01*
X0076762Y0095050D01*
X0076053Y0094756D01*
X0075414Y0094329D01*
X0074871Y0093786D01*
X0074444Y0093147D01*
X0074150Y0092438D01*
X0074000Y0091684D01*
X0074000Y0091600D01*
X0080200Y0091600D01*
X0080200Y0091000D01*
X0080800Y0091000D01*
X0080800Y0087400D01*
X0083484Y0087400D01*
X0084238Y0087550D01*
X0084594Y0087698D02*
X0106406Y0087698D01*
X0106053Y0087844D02*
X0106762Y0087550D01*
X0107516Y0087400D01*
X0110200Y0087400D01*
X0110200Y0091000D01*
X0110800Y0091000D01*
X0110800Y0091600D01*
X0110200Y0091600D01*
X0110200Y0095200D01*
X0107516Y0095200D01*
X0106762Y0095050D01*
X0106053Y0094756D01*
X0105414Y0094329D01*
X0104871Y0093786D01*
X0104444Y0093147D01*
X0104150Y0092438D01*
X0104000Y0091684D01*
X0104000Y0091600D01*
X0110200Y0091600D01*
X0110200Y0091000D01*
X0104000Y0091000D01*
X0104000Y0090916D01*
X0104150Y0090162D01*
X0104444Y0089453D01*
X0104871Y0088814D01*
X0105414Y0088271D01*
X0106053Y0087844D01*
X0105389Y0088296D02*
X0085611Y0088296D01*
X0086183Y0088895D02*
X0104817Y0088895D01*
X0104427Y0089493D02*
X0086573Y0089493D01*
X0086821Y0090092D02*
X0104179Y0090092D01*
X0104045Y0090690D02*
X0086955Y0090690D01*
X0087000Y0091600D02*
X0087000Y0091684D01*
X0086850Y0092438D01*
X0086556Y0093147D01*
X0086129Y0093786D01*
X0085586Y0094329D01*
X0084947Y0094756D01*
X0084238Y0095050D01*
X0083484Y0095200D01*
X0080800Y0095200D01*
X0080800Y0091600D01*
X0087000Y0091600D01*
X0086960Y0091887D02*
X0104040Y0091887D01*
X0104170Y0092486D02*
X0086830Y0092486D01*
X0086582Y0093084D02*
X0104418Y0093084D01*
X0104802Y0093683D02*
X0086198Y0093683D01*
X0085634Y0094281D02*
X0105366Y0094281D01*
X0106351Y0094880D02*
X0084649Y0094880D01*
X0084462Y0095478D02*
X0106538Y0095478D01*
X0105093Y0096077D02*
X0085907Y0096077D01*
X0086819Y0096675D02*
X0104181Y0096675D01*
X0103582Y0097274D02*
X0087418Y0097274D01*
X0088016Y0097872D02*
X0102984Y0097872D01*
X0102686Y0098471D02*
X0088314Y0098471D01*
X0088562Y0099069D02*
X0102438Y0099069D01*
X0102190Y0099668D02*
X0088810Y0099668D01*
X0089000Y0100266D02*
X0102000Y0100266D01*
X0102000Y0100865D02*
X0089000Y0100865D01*
X0089000Y0101463D02*
X0102000Y0101463D01*
X0102000Y0102062D02*
X0089000Y0102062D01*
X0088923Y0102660D02*
X0102077Y0102660D01*
X0102325Y0103259D02*
X0088675Y0103259D01*
X0088427Y0103857D02*
X0102573Y0103857D01*
X0102821Y0104456D02*
X0088179Y0104456D01*
X0087689Y0105054D02*
X0103311Y0105054D01*
X0103909Y0105653D02*
X0087091Y0105653D01*
X0086492Y0106251D02*
X0104508Y0106251D01*
X0104006Y0106850D02*
X0086994Y0106850D01*
X0087592Y0107448D02*
X0103408Y0107448D01*
X0102861Y0108047D02*
X0088139Y0108047D01*
X0088387Y0108645D02*
X0102613Y0108645D01*
X0102366Y0109244D02*
X0088634Y0109244D01*
X0088882Y0109842D02*
X0102118Y0109842D01*
X0102000Y0110441D02*
X0089000Y0110441D01*
X0089000Y0111039D02*
X0102000Y0111039D01*
X0102000Y0111638D02*
X0089000Y0111638D01*
X0089000Y0112237D02*
X0102000Y0112237D01*
X0102150Y0112835D02*
X0088850Y0112835D01*
X0088602Y0113434D02*
X0102398Y0113434D01*
X0102646Y0114032D02*
X0088354Y0114032D01*
X0088107Y0114631D02*
X0102893Y0114631D01*
X0103485Y0115229D02*
X0087515Y0115229D01*
X0086916Y0115828D02*
X0104084Y0115828D01*
X0104430Y0116426D02*
X0086570Y0116426D01*
X0087168Y0117025D02*
X0103832Y0117025D01*
X0103233Y0117623D02*
X0087767Y0117623D01*
X0088211Y0118222D02*
X0102789Y0118222D01*
X0102541Y0118820D02*
X0088459Y0118820D01*
X0088707Y0119419D02*
X0102293Y0119419D01*
X0102045Y0120017D02*
X0088955Y0120017D01*
X0089000Y0120616D02*
X0102000Y0120616D01*
X0102000Y0121214D02*
X0089000Y0121214D01*
X0089000Y0121813D02*
X0102000Y0121813D01*
X0102000Y0122411D02*
X0089000Y0122411D01*
X0088778Y0123010D02*
X0102222Y0123010D01*
X0102470Y0123608D02*
X0088530Y0123608D01*
X0088282Y0124207D02*
X0102718Y0124207D01*
X0103061Y0124805D02*
X0087939Y0124805D01*
X0087340Y0125404D02*
X0103660Y0125404D01*
X0104258Y0126002D02*
X0086742Y0126002D01*
X0085720Y0126601D02*
X0105280Y0126601D01*
X0106000Y0127199D02*
X0084275Y0127199D01*
X0087815Y0130192D02*
X0058000Y0130192D01*
X0058000Y0130790D02*
X0087216Y0130790D01*
X0086618Y0131389D02*
X0058000Y0131389D01*
X0058000Y0131987D02*
X0086050Y0131987D01*
X0086050Y0131957D02*
X0088657Y0129350D01*
X0090200Y0129350D01*
X0090200Y0133500D01*
X0086050Y0133500D01*
X0086050Y0131957D01*
X0086050Y0132586D02*
X0058000Y0132586D01*
X0058000Y0133184D02*
X0086050Y0133184D01*
X0086050Y0134381D02*
X0071457Y0134381D01*
X0070859Y0133783D02*
X0090200Y0133783D01*
X0090200Y0134381D02*
X0090800Y0134381D01*
X0090800Y0134980D02*
X0090200Y0134980D01*
X0090200Y0135578D02*
X0090800Y0135578D01*
X0090800Y0136177D02*
X0090200Y0136177D01*
X0090200Y0136775D02*
X0090800Y0136775D01*
X0090800Y0137374D02*
X0090200Y0137374D01*
X0090200Y0137972D02*
X0090800Y0137972D01*
X0092621Y0137972D02*
X0095551Y0137972D01*
X0096000Y0138571D02*
X0073900Y0138571D01*
X0073900Y0139170D02*
X0096000Y0139170D01*
X0095668Y0139768D02*
X0073900Y0139768D01*
X0073900Y0140367D02*
X0095069Y0140367D01*
X0094471Y0140965D02*
X0073900Y0140965D01*
X0073900Y0141564D02*
X0093872Y0141564D01*
X0093219Y0137374D02*
X0094952Y0137374D01*
X0094354Y0136775D02*
X0093818Y0136775D01*
X0090800Y0133184D02*
X0090200Y0133184D01*
X0090200Y0132586D02*
X0090800Y0132586D01*
X0090800Y0131987D02*
X0090200Y0131987D01*
X0090200Y0131389D02*
X0090800Y0131389D01*
X0090800Y0130790D02*
X0090200Y0130790D01*
X0090200Y0130192D02*
X0090800Y0130192D01*
X0090800Y0129593D02*
X0090200Y0129593D01*
X0088413Y0129593D02*
X0058000Y0129593D01*
X0058000Y0128995D02*
X0096184Y0128995D01*
X0096782Y0128396D02*
X0058000Y0128396D01*
X0058000Y0127798D02*
X0097381Y0127798D01*
X0095585Y0129593D02*
X0092587Y0129593D01*
X0093185Y0130192D02*
X0094986Y0130192D01*
X0094388Y0130790D02*
X0093784Y0130790D01*
X0087781Y0137374D02*
X0073900Y0137374D01*
X0073900Y0137972D02*
X0088379Y0137972D01*
X0087182Y0136775D02*
X0073851Y0136775D01*
X0073253Y0136177D02*
X0086584Y0136177D01*
X0086050Y0135578D02*
X0072654Y0135578D01*
X0072056Y0134980D02*
X0086050Y0134980D01*
X0076725Y0127199D02*
X0058000Y0127199D01*
X0058000Y0126601D02*
X0075280Y0126601D01*
X0074258Y0126002D02*
X0058000Y0126002D01*
X0058000Y0125404D02*
X0073660Y0125404D01*
X0073061Y0124805D02*
X0058000Y0124805D01*
X0058437Y0124207D02*
X0072718Y0124207D01*
X0072470Y0123608D02*
X0058900Y0123608D01*
X0058900Y0123010D02*
X0072222Y0123010D01*
X0072000Y0122411D02*
X0058900Y0122411D01*
X0058900Y0121813D02*
X0072000Y0121813D01*
X0072000Y0121214D02*
X0058900Y0121214D01*
X0058900Y0120616D02*
X0063160Y0120616D01*
X0061853Y0120017D02*
X0058900Y0120017D01*
X0058900Y0119419D02*
X0061255Y0119419D01*
X0060656Y0118820D02*
X0058864Y0118820D01*
X0058265Y0118222D02*
X0060058Y0118222D01*
X0059459Y0117623D02*
X0057667Y0117623D01*
X0057068Y0117025D02*
X0058861Y0117025D01*
X0058262Y0116426D02*
X0056470Y0116426D01*
X0055871Y0115828D02*
X0057664Y0115828D01*
X0057065Y0115229D02*
X0049400Y0115229D01*
X0049400Y0115828D02*
X0050129Y0115828D01*
X0049530Y0116426D02*
X0045800Y0116426D01*
X0045800Y0117025D02*
X0045200Y0117025D01*
X0045200Y0117623D02*
X0045800Y0117623D01*
X0045800Y0118222D02*
X0045200Y0118222D01*
X0045200Y0118820D02*
X0045800Y0118820D01*
X0045800Y0119419D02*
X0045200Y0119419D01*
X0045200Y0120017D02*
X0045800Y0120017D01*
X0043702Y0120017D02*
X0012300Y0120017D01*
X0012300Y0119419D02*
X0022775Y0119419D01*
X0028225Y0119419D02*
X0043103Y0119419D01*
X0042505Y0118820D02*
X0028824Y0118820D01*
X0029422Y0118222D02*
X0041906Y0118222D01*
X0041600Y0117623D02*
X0030021Y0117623D01*
X0030619Y0117025D02*
X0041600Y0117025D01*
X0041600Y0115828D02*
X0031400Y0115828D01*
X0031400Y0115229D02*
X0041600Y0115229D01*
X0041654Y0114631D02*
X0031400Y0114631D01*
X0031632Y0114032D02*
X0042253Y0114032D01*
X0045200Y0116426D02*
X0031218Y0116426D01*
X0042242Y0121214D02*
X0012300Y0121214D01*
X0012300Y0120616D02*
X0042840Y0120616D01*
X0048747Y0114032D02*
X0055868Y0114032D01*
X0056467Y0114631D02*
X0049346Y0114631D01*
X0057757Y0133783D02*
X0065141Y0133783D01*
X0064543Y0134381D02*
X0057509Y0134381D01*
X0057184Y0134980D02*
X0063944Y0134980D01*
X0063346Y0135578D02*
X0056586Y0135578D01*
X0055987Y0136177D02*
X0062747Y0136177D01*
X0062149Y0136775D02*
X0055388Y0136775D01*
X0054790Y0137374D02*
X0062100Y0137374D01*
X0062100Y0137972D02*
X0054191Y0137972D01*
X0052948Y0138571D02*
X0062100Y0138571D01*
X0062100Y0139170D02*
X0030000Y0139170D01*
X0030000Y0139768D02*
X0062100Y0139768D01*
X0062100Y0140367D02*
X0030410Y0140367D01*
X0031009Y0140965D02*
X0034991Y0140965D01*
X0034393Y0141564D02*
X0031400Y0141564D01*
X0031400Y0142162D02*
X0033794Y0142162D01*
X0033196Y0142761D02*
X0031400Y0142761D01*
X0031400Y0143359D02*
X0032597Y0143359D01*
X0032100Y0143958D02*
X0031400Y0143958D01*
X0031400Y0144556D02*
X0032100Y0144556D01*
X0032100Y0145155D02*
X0031400Y0145155D01*
X0031400Y0145753D02*
X0031683Y0145753D01*
X0037229Y0152935D02*
X0075023Y0152935D01*
X0074390Y0153534D02*
X0036630Y0153534D01*
X0036032Y0154132D02*
X0073791Y0154132D01*
X0073193Y0154731D02*
X0035433Y0154731D01*
X0034835Y0155329D02*
X0072790Y0155329D01*
X0072542Y0155928D02*
X0034236Y0155928D01*
X0033056Y0156526D02*
X0072294Y0156526D01*
X0070906Y0151738D02*
X0120500Y0151738D01*
X0120500Y0151140D02*
X0071504Y0151140D01*
X0076468Y0152337D02*
X0037827Y0152337D01*
X0040906Y0151738D02*
X0065094Y0151738D01*
X0064496Y0151140D02*
X0041504Y0151140D01*
X0042103Y0150541D02*
X0063897Y0150541D01*
X0063299Y0149943D02*
X0042701Y0149943D01*
X0043300Y0149344D02*
X0062700Y0149344D01*
X0062102Y0148746D02*
X0043898Y0148746D01*
X0043900Y0148147D02*
X0062100Y0148147D01*
X0062100Y0147549D02*
X0043900Y0147549D01*
X0043900Y0146950D02*
X0062100Y0146950D01*
X0062100Y0146352D02*
X0043900Y0146352D01*
X0043900Y0145753D02*
X0062100Y0145753D01*
X0062100Y0145155D02*
X0043900Y0145155D01*
X0043900Y0144556D02*
X0062100Y0144556D01*
X0062100Y0143958D02*
X0043900Y0143958D01*
X0043403Y0143359D02*
X0062597Y0143359D01*
X0063149Y0142761D02*
X0042804Y0142761D01*
X0042206Y0142162D02*
X0062550Y0142162D01*
X0062100Y0141564D02*
X0041607Y0141564D01*
X0041009Y0140965D02*
X0062100Y0140965D01*
X0063802Y0162511D02*
X0064402Y0162511D01*
X0064402Y0163110D02*
X0063802Y0163110D01*
X0063802Y0163708D02*
X0064402Y0163708D01*
X0064402Y0164307D02*
X0063802Y0164307D01*
X0063802Y0164905D02*
X0064402Y0164905D01*
X0064402Y0165504D02*
X0063802Y0165504D01*
X0063802Y0166103D02*
X0064402Y0166103D01*
X0064402Y0166701D02*
X0063802Y0166701D01*
X0063802Y0167300D02*
X0064402Y0167300D01*
X0064402Y0167898D02*
X0063802Y0167898D01*
X0063802Y0168497D02*
X0064402Y0168497D01*
X0064402Y0169095D02*
X0063802Y0169095D01*
X0063802Y0169694D02*
X0064402Y0169694D01*
X0064402Y0170292D02*
X0063802Y0170292D01*
X0063802Y0170891D02*
X0064402Y0170891D01*
X0064402Y0171489D02*
X0108802Y0171489D01*
X0108802Y0170891D02*
X0109402Y0170891D01*
X0109402Y0171489D02*
X0178621Y0171489D01*
X0178621Y0188846D02*
X0012300Y0188846D01*
X0012300Y0189444D02*
X0178621Y0189444D01*
X0178621Y0190043D02*
X0012300Y0190043D01*
X0012300Y0190641D02*
X0178621Y0190641D01*
X0178621Y0191240D02*
X0012300Y0191240D01*
X0012300Y0191839D02*
X0178621Y0191839D01*
X0178621Y0192437D02*
X0012300Y0192437D01*
X0012300Y0193036D02*
X0178621Y0193036D01*
X0178621Y0193634D02*
X0012300Y0193634D01*
X0012300Y0194233D02*
X0178621Y0194233D01*
X0178621Y0194831D02*
X0012300Y0194831D01*
X0012300Y0195430D02*
X0178621Y0195430D01*
X0178621Y0196028D02*
X0012300Y0196028D01*
X0012300Y0196627D02*
X0178621Y0196627D01*
X0178621Y0197225D02*
X0012300Y0197225D01*
X0012300Y0197824D02*
X0178621Y0197824D01*
X0178621Y0198422D02*
X0012300Y0198422D01*
X0012300Y0199021D02*
X0178621Y0199021D01*
X0178621Y0199619D02*
X0012300Y0199619D01*
X0012300Y0200218D02*
X0178621Y0200218D01*
X0178621Y0200816D02*
X0012300Y0200816D01*
X0012300Y0201415D02*
X0178621Y0201415D01*
X0178621Y0202013D02*
X0012300Y0202013D01*
X0012300Y0202612D02*
X0178621Y0202612D01*
X0178621Y0203210D02*
X0012300Y0203210D01*
X0012300Y0203809D02*
X0178621Y0203809D01*
X0178621Y0204407D02*
X0012300Y0204407D01*
X0012300Y0205006D02*
X0178621Y0205006D01*
X0178621Y0205604D02*
X0012300Y0205604D01*
X0012300Y0206203D02*
X0178621Y0206203D01*
X0178621Y0206801D02*
X0012300Y0206801D01*
X0012300Y0207400D02*
X0178621Y0207400D01*
X0178621Y0207998D02*
X0012300Y0207998D01*
X0012300Y0208597D02*
X0178621Y0208597D01*
X0178621Y0209195D02*
X0012300Y0209195D01*
X0012300Y0209794D02*
X0178621Y0209794D01*
X0178621Y0210392D02*
X0012300Y0210392D01*
X0012300Y0210991D02*
X0178621Y0210991D01*
X0178621Y0211589D02*
X0012300Y0211589D01*
X0012300Y0212188D02*
X0178621Y0212188D01*
X0178621Y0212786D02*
X0012300Y0212786D01*
X0012300Y0213385D02*
X0178621Y0213385D01*
X0178621Y0213983D02*
X0012300Y0213983D01*
X0012300Y0214582D02*
X0178621Y0214582D01*
X0178621Y0215180D02*
X0012300Y0215180D01*
X0066548Y0179868D02*
X0074946Y0179868D01*
X0075498Y0179270D02*
X0067461Y0179270D01*
X0068074Y0178671D02*
X0076264Y0178671D01*
X0088378Y0178073D02*
X0104689Y0178073D01*
X0105130Y0178671D02*
X0089736Y0178671D01*
X0090502Y0179270D02*
X0105743Y0179270D01*
X0106656Y0179868D02*
X0091054Y0179868D01*
X0091467Y0180467D02*
X0108645Y0180467D01*
X0108802Y0180467D02*
X0109402Y0180467D01*
X0109402Y0179868D02*
X0108802Y0179868D01*
X0108802Y0179270D02*
X0109402Y0179270D01*
X0109402Y0178671D02*
X0108802Y0178671D01*
X0108802Y0178073D02*
X0109402Y0178073D01*
X0109402Y0177474D02*
X0108802Y0177474D01*
X0108802Y0176876D02*
X0109402Y0176876D01*
X0109402Y0176277D02*
X0108802Y0176277D01*
X0108802Y0175679D02*
X0109402Y0175679D01*
X0109402Y0175080D02*
X0108802Y0175080D01*
X0108802Y0174482D02*
X0109402Y0174482D01*
X0109402Y0173883D02*
X0108802Y0173883D01*
X0108802Y0173285D02*
X0109402Y0173285D01*
X0109402Y0172686D02*
X0108802Y0172686D01*
X0108802Y0172088D02*
X0109402Y0172088D01*
X0109402Y0170292D02*
X0108802Y0170292D01*
X0108802Y0169694D02*
X0109402Y0169694D01*
X0109402Y0169095D02*
X0108802Y0169095D01*
X0108802Y0168497D02*
X0109402Y0168497D01*
X0109402Y0167898D02*
X0108802Y0167898D01*
X0108802Y0167300D02*
X0109402Y0167300D01*
X0109402Y0166701D02*
X0108802Y0166701D01*
X0108802Y0166103D02*
X0109402Y0166103D01*
X0109402Y0165504D02*
X0108802Y0165504D01*
X0108802Y0164905D02*
X0109402Y0164905D01*
X0109402Y0164307D02*
X0108802Y0164307D01*
X0108802Y0163708D02*
X0109402Y0163708D01*
X0109402Y0163110D02*
X0108802Y0163110D01*
X0108802Y0162511D02*
X0109402Y0162511D01*
X0107089Y0162511D02*
X0093355Y0162511D01*
X0093107Y0163110D02*
X0106046Y0163110D01*
X0105351Y0163708D02*
X0092558Y0163708D01*
X0091960Y0164307D02*
X0104849Y0164307D01*
X0104477Y0164905D02*
X0091361Y0164905D01*
X0090376Y0165504D02*
X0104200Y0165504D01*
X0104005Y0166103D02*
X0088931Y0166103D01*
X0092209Y0154132D02*
X0118791Y0154132D01*
X0119390Y0153534D02*
X0091610Y0153534D01*
X0090977Y0152935D02*
X0120023Y0152935D01*
X0120500Y0152337D02*
X0089532Y0152337D01*
X0104816Y0128995D02*
X0105441Y0128995D01*
X0106000Y0128396D02*
X0104218Y0128396D01*
X0103619Y0127798D02*
X0106000Y0127798D01*
X0127327Y0133783D02*
X0135536Y0133783D01*
X0135784Y0134381D02*
X0127925Y0134381D01*
X0128524Y0134980D02*
X0136032Y0134980D01*
X0136414Y0135578D02*
X0129122Y0135578D01*
X0129721Y0136177D02*
X0137013Y0136177D01*
X0137612Y0136775D02*
X0130319Y0136775D01*
X0130400Y0137374D02*
X0138210Y0137374D01*
X0138809Y0137972D02*
X0130400Y0137972D01*
X0130400Y0138571D02*
X0139407Y0138571D01*
X0140083Y0139170D02*
X0130400Y0139170D01*
X0130400Y0139768D02*
X0141528Y0139768D01*
X0141600Y0115229D02*
X0137935Y0115229D01*
X0138533Y0114631D02*
X0141826Y0114631D01*
X0142424Y0114032D02*
X0139132Y0114032D01*
X0119316Y0094281D02*
X0115634Y0094281D01*
X0115586Y0094329D02*
X0114947Y0094756D01*
X0114238Y0095050D01*
X0113484Y0095200D01*
X0110800Y0095200D01*
X0110800Y0091600D01*
X0117000Y0091600D01*
X0117000Y0091684D01*
X0116850Y0092438D01*
X0116556Y0093147D01*
X0116129Y0093786D01*
X0115586Y0094329D01*
X0116198Y0093683D02*
X0119050Y0093683D01*
X0119050Y0093084D02*
X0116582Y0093084D01*
X0116830Y0092486D02*
X0119050Y0092486D01*
X0119050Y0091887D02*
X0116960Y0091887D01*
X0117000Y0091000D02*
X0110800Y0091000D01*
X0110800Y0087400D01*
X0113484Y0087400D01*
X0114238Y0087550D01*
X0114947Y0087844D01*
X0115586Y0088271D01*
X0116129Y0088814D01*
X0116556Y0089453D01*
X0116850Y0090162D01*
X0117000Y0090916D01*
X0117000Y0091000D01*
X0116955Y0090690D02*
X0119050Y0090690D01*
X0119050Y0090092D02*
X0116821Y0090092D01*
X0116573Y0089493D02*
X0119050Y0089493D01*
X0119050Y0088895D02*
X0116183Y0088895D01*
X0115611Y0088296D02*
X0119382Y0088296D01*
X0119981Y0087698D02*
X0114594Y0087698D01*
X0114238Y0085050D02*
X0113484Y0085200D01*
X0110800Y0085200D01*
X0110800Y0081600D01*
X0117000Y0081600D01*
X0117000Y0081684D01*
X0116850Y0082438D01*
X0116556Y0083147D01*
X0116129Y0083786D01*
X0115586Y0084329D01*
X0114947Y0084756D01*
X0114238Y0085050D01*
X0115024Y0084705D02*
X0119783Y0084705D01*
X0119185Y0084106D02*
X0115809Y0084106D01*
X0116315Y0083508D02*
X0119050Y0083508D01*
X0119050Y0082909D02*
X0116655Y0082909D01*
X0116875Y0082311D02*
X0119050Y0082311D01*
X0119050Y0081712D02*
X0116994Y0081712D01*
X0117000Y0081000D02*
X0110800Y0081000D01*
X0110800Y0077400D01*
X0113484Y0077400D01*
X0114238Y0077550D01*
X0114947Y0077844D01*
X0115586Y0078271D01*
X0116129Y0078814D01*
X0116556Y0079453D01*
X0116850Y0080162D01*
X0117000Y0080916D01*
X0117000Y0081000D01*
X0116920Y0080515D02*
X0119050Y0080515D01*
X0119050Y0079917D02*
X0116748Y0079917D01*
X0116466Y0079318D02*
X0119050Y0079318D01*
X0119050Y0078720D02*
X0116035Y0078720D01*
X0115363Y0078121D02*
X0119557Y0078121D01*
X0119700Y0077523D02*
X0114102Y0077523D01*
X0110800Y0077523D02*
X0110200Y0077523D01*
X0110200Y0078121D02*
X0110800Y0078121D01*
X0110800Y0078720D02*
X0110200Y0078720D01*
X0110200Y0079318D02*
X0110800Y0079318D01*
X0110800Y0079917D02*
X0110200Y0079917D01*
X0110200Y0080515D02*
X0110800Y0080515D01*
X0110800Y0081114D02*
X0119050Y0081114D01*
X0120382Y0085303D02*
X0070618Y0085303D01*
X0071217Y0084705D02*
X0075976Y0084705D01*
X0075191Y0084106D02*
X0071815Y0084106D01*
X0071950Y0083508D02*
X0074685Y0083508D01*
X0074345Y0082909D02*
X0071950Y0082909D01*
X0071950Y0082311D02*
X0074125Y0082311D01*
X0074006Y0081712D02*
X0071950Y0081712D01*
X0071950Y0081114D02*
X0080200Y0081114D01*
X0080200Y0081000D02*
X0074000Y0081000D01*
X0074000Y0080916D01*
X0074150Y0080162D01*
X0074444Y0079453D01*
X0074871Y0078814D01*
X0075414Y0078271D01*
X0076053Y0077844D01*
X0076762Y0077550D01*
X0077516Y0077400D01*
X0080200Y0077400D01*
X0080200Y0081000D01*
X0080200Y0080515D02*
X0080800Y0080515D01*
X0080800Y0079917D02*
X0080200Y0079917D01*
X0080200Y0079318D02*
X0080800Y0079318D01*
X0080800Y0078720D02*
X0080200Y0078720D01*
X0080200Y0078121D02*
X0080800Y0078121D01*
X0080800Y0077523D02*
X0080200Y0077523D01*
X0076898Y0077523D02*
X0071300Y0077523D01*
X0071443Y0078121D02*
X0075637Y0078121D01*
X0074965Y0078720D02*
X0071950Y0078720D01*
X0071950Y0079318D02*
X0074534Y0079318D01*
X0074252Y0079917D02*
X0071950Y0079917D01*
X0071950Y0080515D02*
X0074080Y0080515D01*
X0080200Y0081712D02*
X0080800Y0081712D01*
X0080800Y0081114D02*
X0110200Y0081114D01*
X0110200Y0081712D02*
X0110800Y0081712D01*
X0110800Y0082311D02*
X0110200Y0082311D01*
X0110200Y0082909D02*
X0110800Y0082909D01*
X0110800Y0083508D02*
X0110200Y0083508D01*
X0110200Y0084106D02*
X0110800Y0084106D01*
X0110800Y0084705D02*
X0110200Y0084705D01*
X0110200Y0087698D02*
X0110800Y0087698D01*
X0110800Y0088296D02*
X0110200Y0088296D01*
X0110200Y0088895D02*
X0110800Y0088895D01*
X0110800Y0089493D02*
X0110200Y0089493D01*
X0110200Y0090092D02*
X0110800Y0090092D01*
X0110800Y0090690D02*
X0110200Y0090690D01*
X0110200Y0091289D02*
X0080800Y0091289D01*
X0080800Y0091887D02*
X0080200Y0091887D01*
X0080200Y0091289D02*
X0071950Y0091289D01*
X0071950Y0091887D02*
X0074040Y0091887D01*
X0074170Y0092486D02*
X0071950Y0092486D01*
X0071950Y0093084D02*
X0074418Y0093084D01*
X0074802Y0093683D02*
X0071950Y0093683D01*
X0071640Y0094281D02*
X0075366Y0094281D01*
X0076351Y0094880D02*
X0071300Y0094880D01*
X0072775Y0095478D02*
X0076538Y0095478D01*
X0080200Y0094880D02*
X0080800Y0094880D01*
X0080800Y0094281D02*
X0080200Y0094281D01*
X0080200Y0093683D02*
X0080800Y0093683D01*
X0080800Y0093084D02*
X0080200Y0093084D01*
X0080200Y0092486D02*
X0080800Y0092486D01*
X0080200Y0091000D02*
X0074000Y0091000D01*
X0074000Y0090916D01*
X0074150Y0090162D01*
X0074444Y0089453D01*
X0074871Y0088814D01*
X0075414Y0088271D01*
X0076053Y0087844D01*
X0076762Y0087550D01*
X0077516Y0087400D01*
X0080200Y0087400D01*
X0080200Y0091000D01*
X0080200Y0090690D02*
X0080800Y0090690D01*
X0080800Y0090092D02*
X0080200Y0090092D01*
X0080200Y0089493D02*
X0080800Y0089493D01*
X0080800Y0088895D02*
X0080200Y0088895D01*
X0080200Y0088296D02*
X0080800Y0088296D01*
X0080800Y0087698D02*
X0080200Y0087698D01*
X0080200Y0084705D02*
X0080800Y0084705D01*
X0080800Y0084106D02*
X0080200Y0084106D01*
X0080200Y0083508D02*
X0080800Y0083508D01*
X0080800Y0082909D02*
X0080200Y0082909D01*
X0080200Y0082311D02*
X0080800Y0082311D01*
X0084102Y0077523D02*
X0106898Y0077523D01*
X0110800Y0091289D02*
X0119050Y0091289D01*
X0118718Y0094880D02*
X0114649Y0094880D01*
X0114462Y0095478D02*
X0118119Y0095478D01*
X0110800Y0094880D02*
X0110200Y0094880D01*
X0110200Y0094281D02*
X0110800Y0094281D01*
X0110800Y0093683D02*
X0110200Y0093683D01*
X0110200Y0093084D02*
X0110800Y0093084D01*
X0110800Y0092486D02*
X0110200Y0092486D01*
X0110200Y0091887D02*
X0110800Y0091887D01*
X0120579Y0087099D02*
X0070421Y0087099D01*
X0071019Y0087698D02*
X0076406Y0087698D01*
X0075389Y0088296D02*
X0071618Y0088296D01*
X0071950Y0088895D02*
X0074817Y0088895D01*
X0074427Y0089493D02*
X0071950Y0089493D01*
X0071950Y0090092D02*
X0074179Y0090092D01*
X0074045Y0090690D02*
X0071950Y0090690D01*
X0069822Y0086501D02*
X0121178Y0086501D01*
X0120980Y0085902D02*
X0070020Y0085902D01*
X0086300Y0045203D02*
X0121233Y0045203D01*
X0121831Y0044605D02*
X0086300Y0044605D01*
X0086300Y0044006D02*
X0122430Y0044006D01*
X0123845Y0043408D02*
X0086300Y0043408D01*
X0086300Y0042809D02*
X0126081Y0042809D01*
X0125501Y0042211D02*
X0086300Y0042211D01*
X0086300Y0041612D02*
X0124903Y0041612D01*
X0124512Y0041014D02*
X0086300Y0041014D01*
X0086300Y0040415D02*
X0124264Y0040415D01*
X0124016Y0039817D02*
X0086300Y0039817D01*
X0086300Y0039218D02*
X0123768Y0039218D01*
X0123700Y0038620D02*
X0086300Y0038620D01*
X0086300Y0038021D02*
X0123700Y0038021D01*
X0123700Y0037423D02*
X0086300Y0037423D01*
X0086300Y0036824D02*
X0123700Y0036824D01*
X0123833Y0036226D02*
X0086300Y0036226D01*
X0086375Y0035627D02*
X0124081Y0035627D01*
X0124329Y0035029D02*
X0086974Y0035029D01*
X0087572Y0034430D02*
X0124577Y0034430D01*
X0125059Y0033832D02*
X0088312Y0033832D01*
X0088911Y0033233D02*
X0125657Y0033233D01*
X0120634Y0045802D02*
X0115243Y0045802D01*
X0116544Y0046400D02*
X0120036Y0046400D01*
X0119437Y0046999D02*
X0117143Y0046999D01*
X0117741Y0047597D02*
X0118924Y0047597D01*
X0118677Y0048196D02*
X0118200Y0048196D01*
X0138547Y0032036D02*
X0145453Y0032036D01*
X0144256Y0032634D02*
X0139744Y0032634D01*
X0140343Y0033233D02*
X0143657Y0033233D01*
X0082996Y0022460D02*
X0012300Y0022460D01*
X0012300Y0023058D02*
X0082398Y0023058D01*
X0081799Y0023657D02*
X0012300Y0023657D01*
X0012300Y0024255D02*
X0081201Y0024255D01*
X0080602Y0024854D02*
X0012300Y0024854D01*
X0012300Y0025452D02*
X0080004Y0025452D01*
X0079547Y0026051D02*
X0012300Y0026051D01*
X0012300Y0026649D02*
X0078948Y0026649D01*
X0078350Y0027248D02*
X0012300Y0027248D01*
X0012300Y0027846D02*
X0077751Y0027846D01*
X0077153Y0028445D02*
X0012300Y0028445D01*
X0012300Y0029043D02*
X0076554Y0029043D01*
X0075956Y0029642D02*
X0012300Y0029642D01*
X0012300Y0030240D02*
X0075489Y0030240D01*
X0075242Y0030839D02*
X0012300Y0030839D01*
X0012300Y0031437D02*
X0074994Y0031437D01*
X0053422Y0032634D02*
X0045078Y0032634D01*
X0046523Y0033233D02*
X0051977Y0033233D01*
X0051059Y0033832D02*
X0047441Y0033832D01*
D17*
X0040500Y0038800D02*
X0058000Y0038800D01*
X0058000Y0048800D02*
X0058500Y0049300D01*
X0067500Y0049300D01*
X0070500Y0052300D01*
X0070500Y0060300D01*
X0071500Y0061300D01*
X0080500Y0061300D01*
X0110500Y0061300D02*
X0120500Y0061300D01*
X0122800Y0059000D01*
X0122800Y0050000D01*
X0125000Y0047800D01*
X0133000Y0047800D01*
X0133000Y0037800D02*
X0151000Y0037800D01*
X0151000Y0047800D02*
X0164000Y0047800D01*
X0173500Y0057300D01*
X0173500Y0110300D01*
X0167500Y0116300D01*
X0166000Y0116300D01*
X0165500Y0115800D01*
X0165500Y0112300D01*
X0162500Y0109300D01*
X0137500Y0109300D01*
X0130500Y0116300D01*
X0121500Y0116300D01*
X0116500Y0111300D01*
X0110500Y0111300D01*
X0110500Y0121300D02*
X0110500Y0130300D01*
X0110500Y0136300D01*
X0113500Y0139300D01*
X0124500Y0139300D01*
X0125000Y0139800D01*
X0125000Y0146300D01*
X0125000Y0156095D01*
X0128000Y0159095D01*
X0142500Y0135300D02*
X0164500Y0135300D01*
X0165500Y0136300D01*
X0165500Y0145800D01*
X0163000Y0154300D02*
X0170500Y0154300D01*
X0173500Y0151300D01*
X0173500Y0126300D01*
X0172500Y0125300D01*
X0162500Y0125300D01*
X0154500Y0117300D01*
X0147500Y0117300D01*
X0140000Y0122300D02*
X0140000Y0132800D01*
X0142500Y0135300D01*
X0155000Y0146300D02*
X0163000Y0154300D01*
X0129863Y0109300D02*
X0124500Y0109300D01*
X0129863Y0109300D02*
X0135263Y0103900D01*
X0162900Y0103900D01*
X0166500Y0100300D01*
X0166500Y0066300D01*
X0158000Y0057800D01*
X0151000Y0057800D01*
X0110500Y0130300D02*
X0107000Y0133800D01*
X0100500Y0133800D01*
X0100500Y0141300D01*
X0095500Y0146300D01*
X0068000Y0146300D01*
X0068000Y0139268D01*
X0053500Y0132300D02*
X0053500Y0121800D01*
X0053000Y0121300D01*
X0045500Y0126300D02*
X0020500Y0126300D01*
X0017500Y0129300D01*
X0017500Y0150300D01*
X0019500Y0152300D01*
X0031500Y0152300D01*
X0037500Y0146300D01*
X0038000Y0146300D01*
X0027500Y0134300D02*
X0025500Y0136300D01*
X0025500Y0143800D01*
X0027500Y0134300D02*
X0051500Y0134300D01*
X0053500Y0132300D01*
X0064500Y0116300D02*
X0057500Y0109300D01*
X0030000Y0109300D01*
X0025500Y0113800D01*
X0019500Y0107800D01*
X0019500Y0059300D01*
X0030000Y0048800D01*
X0040500Y0048800D01*
X0040500Y0058800D02*
X0031000Y0058800D01*
X0026750Y0063050D01*
X0026750Y0099342D01*
X0031308Y0103900D01*
X0059737Y0103900D01*
X0065105Y0109268D01*
X0068000Y0109268D01*
X0071500Y0116300D02*
X0064500Y0116300D01*
X0071500Y0116300D02*
X0076500Y0111300D01*
X0080500Y0111300D01*
X0025500Y0113800D02*
X0024500Y0112800D01*
D18*
X0038000Y0096143D02*
X0042843Y0091300D01*
X0065500Y0091300D01*
X0065500Y0100168D01*
X0066500Y0101168D01*
X0071355Y0101168D01*
X0071487Y0101300D01*
X0080500Y0101300D01*
X0065500Y0081300D02*
X0042843Y0081300D01*
X0038000Y0076457D01*
X0065500Y0072300D02*
X0066500Y0071300D01*
X0080500Y0071300D01*
X0065500Y0072300D02*
X0065500Y0081300D01*
X0080500Y0051300D02*
X0080500Y0033300D01*
X0085500Y0028300D01*
X0110500Y0071300D02*
X0123500Y0071300D01*
X0125500Y0073300D01*
X0125500Y0081300D01*
X0148157Y0081300D01*
X0153000Y0076457D01*
X0148157Y0091300D02*
X0125500Y0091300D01*
X0125500Y0096300D01*
X0120500Y0101300D01*
X0110500Y0101300D01*
X0148157Y0091300D02*
X0153000Y0096143D01*
M02*
