G75*
%MOIN*%
%OFA0B0*%
%FSLAX25Y25*%
%IPPOS*%
%LPD*%
%AMOC8*
5,1,8,0,0,1.08239X$1,22.5*
%
%ADD10OC8,0.06000*%
%ADD11OC8,0.07100*%
%ADD12C,0.08674*%
%ADD13C,0.06800*%
%ADD14C,0.06000*%
%ADD15C,0.07850*%
D10*
X0085500Y0028300D03*
X0105500Y0028300D03*
X0124500Y0109300D03*
X0140000Y0122300D03*
X0147500Y0117300D03*
X0147500Y0127300D03*
X0155000Y0146300D03*
X0165500Y0145800D03*
X0165500Y0115800D03*
X0124500Y0139300D03*
X0125000Y0146300D03*
X0068000Y0146300D03*
X0068000Y0139268D03*
X0053000Y0121300D03*
X0045500Y0116300D03*
X0045500Y0126300D03*
X0038000Y0146300D03*
X0025500Y0143800D03*
X0025500Y0113800D03*
X0068000Y0109268D03*
D11*
X0065500Y0091300D03*
X0065500Y0081300D03*
X0090500Y0133800D03*
X0100500Y0133800D03*
X0125500Y0091300D03*
X0125500Y0081300D03*
D12*
X0124063Y0159095D02*
X0131937Y0159095D01*
X0131937Y0183111D02*
X0124063Y0183111D01*
X0109102Y0175237D02*
X0109102Y0167363D01*
X0086937Y0159095D02*
X0079063Y0159095D01*
X0064102Y0167363D02*
X0064102Y0175237D01*
X0079063Y0183111D02*
X0086937Y0183111D01*
D13*
X0043500Y0038800D02*
X0037500Y0038800D01*
X0037500Y0048800D02*
X0043500Y0048800D01*
X0043500Y0058800D02*
X0037500Y0058800D01*
X0055000Y0058800D02*
X0061000Y0058800D01*
X0061000Y0048800D02*
X0055000Y0048800D01*
X0055000Y0038800D02*
X0061000Y0038800D01*
X0130000Y0037800D02*
X0136000Y0037800D01*
X0136000Y0047800D02*
X0130000Y0047800D01*
X0130000Y0057800D02*
X0136000Y0057800D01*
X0148000Y0057800D02*
X0154000Y0057800D01*
X0154000Y0047800D02*
X0148000Y0047800D01*
X0148000Y0037800D02*
X0154000Y0037800D01*
D14*
X0113100Y0051300D02*
X0107900Y0051300D01*
X0107900Y0061300D02*
X0113100Y0061300D01*
X0113100Y0071300D02*
X0107900Y0071300D01*
X0107900Y0081300D02*
X0113100Y0081300D01*
X0113100Y0091300D02*
X0107900Y0091300D01*
X0107900Y0101300D02*
X0113100Y0101300D01*
X0113100Y0111300D02*
X0107900Y0111300D01*
X0107900Y0121300D02*
X0113100Y0121300D01*
X0083100Y0121300D02*
X0077900Y0121300D01*
X0077900Y0111300D02*
X0083100Y0111300D01*
X0083100Y0101300D02*
X0077900Y0101300D01*
X0077900Y0091300D02*
X0083100Y0091300D01*
X0083100Y0081300D02*
X0077900Y0081300D01*
X0077900Y0071300D02*
X0083100Y0071300D01*
X0083100Y0061300D02*
X0077900Y0061300D01*
X0077900Y0051300D02*
X0083100Y0051300D01*
D15*
X0041525Y0076457D02*
X0034475Y0076457D01*
X0034475Y0096143D02*
X0041525Y0096143D01*
X0149475Y0096143D02*
X0156525Y0096143D01*
X0156525Y0076457D02*
X0149475Y0076457D01*
M02*
