G75*
%MOIN*%
%OFA0B0*%
%FSLAX25Y25*%
%IPPOS*%
%LPD*%
%AMOC8*
5,1,8,0,0,1.08239X$1,22.5*
%
%ADD10OC8,0.05200*%
%ADD11OC8,0.06300*%
%ADD12C,0.07874*%
%ADD13C,0.06000*%
%ADD14C,0.05200*%
%ADD15C,0.07050*%
%ADD16C,0.05000*%
%ADD17C,0.02400*%
D10*
X0085500Y0028300D03*
X0105500Y0028300D03*
X0124500Y0109300D03*
X0140000Y0122300D03*
X0147500Y0117300D03*
X0147500Y0127300D03*
X0155000Y0146300D03*
X0165500Y0145800D03*
X0165500Y0115800D03*
X0124500Y0139300D03*
X0125000Y0146300D03*
X0068000Y0146300D03*
X0068000Y0139268D03*
X0053000Y0121300D03*
X0045500Y0116300D03*
X0045500Y0126300D03*
X0038000Y0146300D03*
X0025500Y0143800D03*
X0025500Y0113800D03*
X0068000Y0109268D03*
D11*
X0065500Y0091300D03*
X0065500Y0081300D03*
X0090500Y0133800D03*
X0100500Y0133800D03*
X0125500Y0091300D03*
X0125500Y0081300D03*
D12*
X0124063Y0159095D02*
X0131937Y0159095D01*
X0131937Y0183111D02*
X0124063Y0183111D01*
X0109102Y0175237D02*
X0109102Y0167363D01*
X0086937Y0159095D02*
X0079063Y0159095D01*
X0064102Y0167363D02*
X0064102Y0175237D01*
X0079063Y0183111D02*
X0086937Y0183111D01*
D13*
X0061000Y0058800D02*
X0055000Y0058800D01*
X0055000Y0048800D02*
X0061000Y0048800D01*
X0061000Y0038800D02*
X0055000Y0038800D01*
X0043500Y0038800D02*
X0037500Y0038800D01*
X0037500Y0048800D02*
X0043500Y0048800D01*
X0043500Y0058800D02*
X0037500Y0058800D01*
X0130000Y0057800D02*
X0136000Y0057800D01*
X0136000Y0047800D02*
X0130000Y0047800D01*
X0130000Y0037800D02*
X0136000Y0037800D01*
X0148000Y0037800D02*
X0154000Y0037800D01*
X0154000Y0047800D02*
X0148000Y0047800D01*
X0148000Y0057800D02*
X0154000Y0057800D01*
D14*
X0113100Y0061300D02*
X0107900Y0061300D01*
X0107900Y0071300D02*
X0113100Y0071300D01*
X0113100Y0081300D02*
X0107900Y0081300D01*
X0107900Y0091300D02*
X0113100Y0091300D01*
X0113100Y0101300D02*
X0107900Y0101300D01*
X0107900Y0111300D02*
X0113100Y0111300D01*
X0113100Y0121300D02*
X0107900Y0121300D01*
X0083100Y0121300D02*
X0077900Y0121300D01*
X0077900Y0111300D02*
X0083100Y0111300D01*
X0083100Y0101300D02*
X0077900Y0101300D01*
X0077900Y0091300D02*
X0083100Y0091300D01*
X0083100Y0081300D02*
X0077900Y0081300D01*
X0077900Y0071300D02*
X0083100Y0071300D01*
X0083100Y0061300D02*
X0077900Y0061300D01*
X0077900Y0051300D02*
X0083100Y0051300D01*
X0107900Y0051300D02*
X0113100Y0051300D01*
D15*
X0149475Y0076457D02*
X0156525Y0076457D01*
X0156525Y0096143D02*
X0149475Y0096143D01*
X0041525Y0096143D02*
X0034475Y0096143D01*
X0034475Y0076457D02*
X0041525Y0076457D01*
D16*
X0014500Y0024986D02*
X0014500Y0012800D01*
X0176421Y0012800D01*
X0176421Y0213501D01*
X0014500Y0213501D01*
X0014500Y0160614D01*
X0017718Y0163832D01*
X0019968Y0166082D01*
X0022909Y0167300D01*
X0056665Y0167300D01*
X0056665Y0171300D01*
X0064102Y0171300D01*
X0056665Y0171300D01*
X0056665Y0175724D01*
X0056793Y0176691D01*
X0057045Y0177633D01*
X0057418Y0178533D01*
X0057905Y0179378D01*
X0058499Y0180151D01*
X0059188Y0180840D01*
X0059962Y0181434D01*
X0060806Y0181921D01*
X0061707Y0182294D01*
X0062648Y0182547D01*
X0063615Y0182674D01*
X0064102Y0182674D01*
X0064102Y0171300D01*
X0064102Y0171300D01*
X0064102Y0171300D01*
X0064102Y0182674D01*
X0064590Y0182674D01*
X0065556Y0182547D01*
X0066498Y0182294D01*
X0067399Y0181921D01*
X0068243Y0181434D01*
X0069016Y0180840D01*
X0069706Y0180151D01*
X0070299Y0179378D01*
X0070787Y0178533D01*
X0071160Y0177633D01*
X0071412Y0176691D01*
X0071539Y0175724D01*
X0071539Y0171300D01*
X0064102Y0171300D01*
X0064102Y0171300D01*
X0071539Y0171300D01*
X0071539Y0166876D01*
X0071412Y0165909D01*
X0071160Y0164967D01*
X0070883Y0164300D01*
X0071004Y0164300D01*
X0071063Y0164441D01*
X0073717Y0167096D01*
X0077186Y0168532D01*
X0088814Y0168532D01*
X0092283Y0167096D01*
X0094937Y0164441D01*
X0096374Y0160972D01*
X0096374Y0157218D01*
X0094937Y0153750D01*
X0092283Y0151095D01*
X0088814Y0149658D01*
X0084877Y0149658D01*
X0084736Y0149518D01*
X0081796Y0148300D01*
X0076100Y0148300D01*
X0076100Y0142945D01*
X0075939Y0142784D01*
X0076100Y0142623D01*
X0076100Y0135913D01*
X0071355Y0131168D01*
X0064645Y0131168D01*
X0059900Y0135913D01*
X0059900Y0142623D01*
X0060061Y0142784D01*
X0059900Y0142945D01*
X0059900Y0148300D01*
X0057909Y0148300D01*
X0054968Y0149518D01*
X0053186Y0151300D01*
X0044455Y0151300D01*
X0046100Y0149655D01*
X0046100Y0142945D01*
X0041355Y0138200D01*
X0034645Y0138200D01*
X0033000Y0139845D01*
X0028855Y0135700D01*
X0025400Y0135700D01*
X0025400Y0121900D01*
X0028855Y0121900D01*
X0029800Y0120955D01*
X0029800Y0124633D01*
X0030820Y0127095D01*
X0033820Y0130095D01*
X0035705Y0131980D01*
X0038167Y0133000D01*
X0040745Y0133000D01*
X0042145Y0134400D01*
X0048855Y0134400D01*
X0053600Y0129655D01*
X0053600Y0129400D01*
X0056355Y0129400D01*
X0061100Y0124655D01*
X0061100Y0117945D01*
X0056715Y0113560D01*
X0058180Y0112095D01*
X0059900Y0110375D01*
X0059900Y0112623D01*
X0061300Y0114023D01*
X0061300Y0119133D01*
X0062320Y0121595D01*
X0065820Y0125095D01*
X0067705Y0126980D01*
X0070167Y0128000D01*
X0073145Y0128000D01*
X0073312Y0128167D01*
X0076289Y0129400D01*
X0084711Y0129400D01*
X0086050Y0128845D01*
X0083850Y0131045D01*
X0083850Y0133800D01*
X0090500Y0133800D01*
X0090500Y0133800D01*
X0090500Y0140450D01*
X0093255Y0140450D01*
X0094086Y0139619D01*
X0096917Y0142450D01*
X0104083Y0142450D01*
X0109150Y0137383D01*
X0109150Y0130217D01*
X0108333Y0129400D01*
X0114711Y0129400D01*
X0117688Y0128167D01*
X0119967Y0125888D01*
X0121200Y0122911D01*
X0121200Y0119689D01*
X0119967Y0116712D01*
X0119555Y0116300D01*
X0119800Y0116055D01*
X0121145Y0117400D01*
X0127855Y0117400D01*
X0132600Y0112655D01*
X0132600Y0105945D01*
X0127855Y0101200D01*
X0121200Y0101200D01*
X0121200Y0099689D01*
X0120878Y0098911D01*
X0121917Y0099950D01*
X0129083Y0099950D01*
X0133800Y0095233D01*
X0133800Y0111633D01*
X0134820Y0114095D01*
X0135785Y0115060D01*
X0131900Y0118945D01*
X0131900Y0125655D01*
X0136645Y0130400D01*
X0141973Y0130400D01*
X0144973Y0133400D01*
X0147500Y0133400D01*
X0147500Y0127300D01*
X0147500Y0127300D01*
X0153600Y0127300D01*
X0153600Y0129827D01*
X0150027Y0133400D01*
X0147500Y0133400D01*
X0147500Y0127300D01*
X0147500Y0127300D01*
X0153600Y0127300D01*
X0153600Y0124773D01*
X0152541Y0123714D01*
X0155600Y0120655D01*
X0155600Y0113945D01*
X0150855Y0109200D01*
X0148875Y0109200D01*
X0147200Y0107525D01*
X0147200Y0104969D01*
X0147680Y0105168D01*
X0158320Y0105168D01*
X0161637Y0103794D01*
X0164176Y0101255D01*
X0165550Y0097938D01*
X0165550Y0094347D01*
X0164176Y0091030D01*
X0161637Y0088491D01*
X0158320Y0087118D01*
X0147680Y0087118D01*
X0147200Y0087316D01*
X0147200Y0085284D01*
X0147680Y0085482D01*
X0158320Y0085482D01*
X0161637Y0084109D01*
X0164176Y0081570D01*
X0165550Y0078253D01*
X0165550Y0074662D01*
X0164176Y0071345D01*
X0161637Y0068806D01*
X0158320Y0067432D01*
X0147680Y0067432D01*
X0144363Y0068806D01*
X0143422Y0069747D01*
X0139700Y0066025D01*
X0139700Y0065468D01*
X0140815Y0065006D01*
X0142000Y0063821D01*
X0143185Y0065006D01*
X0146309Y0066300D01*
X0155691Y0066300D01*
X0158815Y0065006D01*
X0160020Y0063801D01*
X0160795Y0063480D01*
X0165295Y0058980D01*
X0167180Y0057095D01*
X0168200Y0054633D01*
X0168200Y0030967D01*
X0167180Y0028505D01*
X0163180Y0024505D01*
X0161295Y0022620D01*
X0158833Y0021600D01*
X0124167Y0021600D01*
X0121705Y0022620D01*
X0106705Y0037620D01*
X0104820Y0039505D01*
X0103800Y0041967D01*
X0103800Y0044231D01*
X0103312Y0044433D01*
X0101033Y0046712D01*
X0099800Y0049689D01*
X0099800Y0052911D01*
X0101033Y0055888D01*
X0101445Y0056300D01*
X0101033Y0056712D01*
X0099800Y0059689D01*
X0099800Y0062911D01*
X0101033Y0065888D01*
X0101445Y0066300D01*
X0101033Y0066712D01*
X0099800Y0069689D01*
X0099800Y0072911D01*
X0101033Y0075888D01*
X0102921Y0077776D01*
X0102683Y0078103D01*
X0102247Y0078958D01*
X0101950Y0079872D01*
X0101800Y0080820D01*
X0101800Y0081300D01*
X0110500Y0081300D01*
X0110500Y0081300D01*
X0110500Y0085200D01*
X0110500Y0091300D01*
X0110500Y0091300D01*
X0101800Y0091300D01*
X0101800Y0091780D01*
X0101950Y0092728D01*
X0102247Y0093642D01*
X0102683Y0094497D01*
X0102921Y0094824D01*
X0101033Y0096712D01*
X0099800Y0099689D01*
X0099800Y0102911D01*
X0101033Y0105888D01*
X0101445Y0106300D01*
X0101033Y0106712D01*
X0099800Y0109689D01*
X0099800Y0112911D01*
X0101033Y0115888D01*
X0101445Y0116300D01*
X0101033Y0116712D01*
X0099800Y0119689D01*
X0099800Y0122911D01*
X0100727Y0125150D01*
X0096917Y0125150D01*
X0094086Y0127981D01*
X0093255Y0127150D01*
X0090500Y0127150D01*
X0090500Y0133800D01*
X0090500Y0133800D01*
X0090500Y0133800D01*
X0090500Y0140450D01*
X0087745Y0140450D01*
X0083850Y0136555D01*
X0083850Y0133800D01*
X0090500Y0133800D01*
X0090500Y0127150D01*
X0088705Y0127150D01*
X0089967Y0125888D01*
X0091200Y0122911D01*
X0091200Y0119689D01*
X0089967Y0116712D01*
X0089555Y0116300D01*
X0089967Y0115888D01*
X0091200Y0112911D01*
X0091200Y0109689D01*
X0089967Y0106712D01*
X0089555Y0106300D01*
X0089967Y0105888D01*
X0091200Y0102911D01*
X0091200Y0099689D01*
X0089967Y0096712D01*
X0088079Y0094824D01*
X0088317Y0094497D01*
X0088753Y0093642D01*
X0089050Y0092728D01*
X0089200Y0091780D01*
X0089200Y0091300D01*
X0080500Y0091300D01*
X0080500Y0091300D01*
X0089200Y0091300D01*
X0089200Y0090820D01*
X0089050Y0089872D01*
X0088753Y0088958D01*
X0088317Y0088103D01*
X0087753Y0087326D01*
X0087074Y0086647D01*
X0086596Y0086300D01*
X0087074Y0085953D01*
X0087753Y0085274D01*
X0088317Y0084497D01*
X0088753Y0083642D01*
X0089050Y0082728D01*
X0089200Y0081780D01*
X0089200Y0081300D01*
X0080500Y0081300D01*
X0080500Y0081300D01*
X0080500Y0081300D01*
X0080500Y0091300D01*
X0080500Y0091300D01*
X0080500Y0087400D01*
X0080500Y0081300D01*
X0089200Y0081300D01*
X0089200Y0080820D01*
X0089050Y0079872D01*
X0088753Y0078958D01*
X0088317Y0078103D01*
X0088079Y0077776D01*
X0089967Y0075888D01*
X0091200Y0072911D01*
X0091200Y0069689D01*
X0089967Y0066712D01*
X0089555Y0066300D01*
X0089967Y0065888D01*
X0091200Y0062911D01*
X0091200Y0059689D01*
X0089967Y0056712D01*
X0089555Y0056300D01*
X0089967Y0055888D01*
X0091200Y0052911D01*
X0091200Y0049689D01*
X0089967Y0046712D01*
X0087688Y0044433D01*
X0084711Y0043200D01*
X0076289Y0043200D01*
X0073312Y0044433D01*
X0071033Y0046712D01*
X0069800Y0049689D01*
X0069800Y0052911D01*
X0071033Y0055888D01*
X0071445Y0056300D01*
X0071033Y0056712D01*
X0069800Y0059689D01*
X0069800Y0062911D01*
X0071033Y0065888D01*
X0071445Y0066300D01*
X0071033Y0066712D01*
X0069800Y0069689D01*
X0069800Y0072911D01*
X0070122Y0073689D01*
X0069083Y0072650D01*
X0061917Y0072650D01*
X0061200Y0073367D01*
X0061200Y0071075D01*
X0063680Y0068595D01*
X0064532Y0066537D01*
X0065815Y0066006D01*
X0068206Y0063615D01*
X0069500Y0060491D01*
X0069500Y0057109D01*
X0068206Y0053985D01*
X0068021Y0053800D01*
X0068206Y0053615D01*
X0069500Y0050491D01*
X0069500Y0047109D01*
X0068206Y0043985D01*
X0068021Y0043800D01*
X0068206Y0043615D01*
X0069500Y0040491D01*
X0069500Y0037109D01*
X0069165Y0036300D01*
X0082045Y0036300D01*
X0082145Y0036400D01*
X0088855Y0036400D01*
X0093600Y0031655D01*
X0093600Y0024945D01*
X0088855Y0020200D01*
X0082145Y0020200D01*
X0082045Y0020300D01*
X0020909Y0020300D01*
X0017968Y0021518D01*
X0014500Y0024986D01*
X0014500Y0021296D02*
X0018505Y0021296D01*
X0014500Y0016297D02*
X0176421Y0016297D01*
X0176421Y0021296D02*
X0089951Y0021296D01*
X0093600Y0026294D02*
X0099400Y0026294D01*
X0099400Y0025773D02*
X0102973Y0022200D01*
X0105500Y0022200D01*
X0108027Y0022200D01*
X0111600Y0025773D01*
X0111600Y0028300D01*
X0111600Y0030827D01*
X0108027Y0034400D01*
X0105500Y0034400D01*
X0105500Y0028300D01*
X0111600Y0028300D01*
X0105500Y0028300D01*
X0105500Y0028300D01*
X0105500Y0028300D01*
X0105500Y0022200D01*
X0105500Y0028300D01*
X0105500Y0028300D01*
X0105500Y0028300D01*
X0099400Y0028300D01*
X0099400Y0030827D01*
X0102973Y0034400D01*
X0105500Y0034400D01*
X0105500Y0028300D01*
X0099400Y0028300D01*
X0099400Y0025773D01*
X0099866Y0031293D02*
X0093600Y0031293D01*
X0088964Y0036291D02*
X0108034Y0036291D01*
X0104081Y0041290D02*
X0069169Y0041290D01*
X0069160Y0046288D02*
X0071457Y0046288D01*
X0069800Y0051287D02*
X0069170Y0051287D01*
X0069159Y0056285D02*
X0071430Y0056285D01*
X0069800Y0061284D02*
X0069172Y0061284D01*
X0071427Y0066282D02*
X0065148Y0066282D01*
X0061200Y0071281D02*
X0069800Y0071281D01*
X0080500Y0086276D02*
X0080500Y0086276D01*
X0080500Y0091275D02*
X0080500Y0091275D01*
X0086629Y0086276D02*
X0104371Y0086276D01*
X0104404Y0086300D02*
X0103926Y0085953D01*
X0103247Y0085274D01*
X0102683Y0084497D01*
X0102247Y0083642D01*
X0101950Y0082728D01*
X0101800Y0081780D01*
X0101800Y0081300D01*
X0110500Y0081300D01*
X0110500Y0081300D01*
X0110500Y0091300D01*
X0110500Y0091300D01*
X0101800Y0091300D01*
X0101800Y0090820D01*
X0101950Y0089872D01*
X0102247Y0088958D01*
X0102683Y0088103D01*
X0103247Y0087326D01*
X0103926Y0086647D01*
X0104404Y0086300D01*
X0101800Y0091275D02*
X0089200Y0091275D01*
X0089528Y0096273D02*
X0101472Y0096273D01*
X0099800Y0101272D02*
X0091200Y0101272D01*
X0089585Y0106270D02*
X0101415Y0106270D01*
X0099800Y0111269D02*
X0091200Y0111269D01*
X0089588Y0116267D02*
X0101412Y0116267D01*
X0099800Y0121266D02*
X0091200Y0121266D01*
X0089591Y0126264D02*
X0095803Y0126264D01*
X0090500Y0131263D02*
X0090500Y0131263D01*
X0090500Y0136261D02*
X0090500Y0136261D01*
X0095727Y0141260D02*
X0076100Y0141260D01*
X0076100Y0146258D02*
X0116900Y0146258D01*
X0116900Y0143155D02*
X0116400Y0142655D01*
X0116400Y0135945D01*
X0121145Y0131200D01*
X0127855Y0131200D01*
X0132600Y0135945D01*
X0132600Y0142445D01*
X0133100Y0142945D01*
X0133100Y0149655D01*
X0133097Y0149658D01*
X0133814Y0149658D01*
X0137283Y0151095D01*
X0139937Y0153750D01*
X0141374Y0157218D01*
X0141374Y0160972D01*
X0139937Y0164441D01*
X0137283Y0167096D01*
X0133814Y0168532D01*
X0122186Y0168532D01*
X0118717Y0167096D01*
X0116063Y0164441D01*
X0114626Y0160972D01*
X0114626Y0157218D01*
X0116063Y0153750D01*
X0118529Y0151284D01*
X0116900Y0149655D01*
X0116900Y0143155D01*
X0116400Y0141260D02*
X0105273Y0141260D01*
X0109150Y0136261D02*
X0116400Y0136261D01*
X0121082Y0131263D02*
X0109150Y0131263D01*
X0119591Y0126264D02*
X0132509Y0126264D01*
X0127918Y0131263D02*
X0142836Y0131263D01*
X0147500Y0131263D02*
X0147500Y0131263D01*
X0152164Y0131263D02*
X0176421Y0131263D01*
X0176421Y0136261D02*
X0132600Y0136261D01*
X0132600Y0141260D02*
X0148585Y0141260D01*
X0146900Y0142945D02*
X0151645Y0138200D01*
X0158355Y0138200D01*
X0160000Y0139845D01*
X0162145Y0137700D01*
X0168855Y0137700D01*
X0173600Y0142445D01*
X0173600Y0149155D01*
X0168855Y0153900D01*
X0162145Y0153900D01*
X0160500Y0152255D01*
X0158355Y0154400D01*
X0151645Y0154400D01*
X0146900Y0149655D01*
X0146900Y0142945D01*
X0146900Y0146258D02*
X0133100Y0146258D01*
X0137445Y0151257D02*
X0148502Y0151257D01*
X0140975Y0156255D02*
X0176421Y0156255D01*
X0176421Y0151257D02*
X0171498Y0151257D01*
X0173600Y0146258D02*
X0176421Y0146258D01*
X0176421Y0141260D02*
X0172415Y0141260D01*
X0176421Y0126264D02*
X0153600Y0126264D01*
X0154989Y0121266D02*
X0159511Y0121266D01*
X0157400Y0119155D02*
X0157400Y0112445D01*
X0162145Y0107700D01*
X0168855Y0107700D01*
X0173600Y0112445D01*
X0173600Y0119155D01*
X0168855Y0123900D01*
X0162145Y0123900D01*
X0157400Y0119155D01*
X0157400Y0116267D02*
X0155600Y0116267D01*
X0152924Y0111269D02*
X0158576Y0111269D01*
X0164159Y0101272D02*
X0176421Y0101272D01*
X0176421Y0096273D02*
X0165550Y0096273D01*
X0164277Y0091275D02*
X0176421Y0091275D01*
X0176421Y0086276D02*
X0147200Y0086276D01*
X0133800Y0096273D02*
X0132760Y0096273D01*
X0133800Y0101272D02*
X0127927Y0101272D01*
X0132600Y0106270D02*
X0133800Y0106270D01*
X0133800Y0111269D02*
X0132600Y0111269D01*
X0134578Y0116267D02*
X0128988Y0116267D01*
X0131900Y0121266D02*
X0121200Y0121266D01*
X0120012Y0116267D02*
X0119588Y0116267D01*
X0110500Y0091275D02*
X0110500Y0091275D01*
X0110500Y0086276D02*
X0110500Y0086276D01*
X0101800Y0081278D02*
X0089200Y0081278D01*
X0089576Y0076279D02*
X0101424Y0076279D01*
X0099800Y0071281D02*
X0091200Y0071281D01*
X0089573Y0066282D02*
X0101427Y0066282D01*
X0099800Y0061284D02*
X0091200Y0061284D01*
X0089570Y0056285D02*
X0101430Y0056285D01*
X0099800Y0051287D02*
X0091200Y0051287D01*
X0089543Y0046288D02*
X0101457Y0046288D01*
X0105500Y0031293D02*
X0105500Y0031293D01*
X0105500Y0026294D02*
X0105500Y0026294D01*
X0111600Y0026294D02*
X0118031Y0026294D01*
X0113032Y0031293D02*
X0111134Y0031293D01*
X0085500Y0028300D02*
X0022500Y0028300D01*
X0017400Y0033400D01*
X0017400Y0152200D01*
X0024500Y0159300D01*
X0056500Y0159300D01*
X0059500Y0156300D01*
X0080205Y0156300D01*
X0083000Y0159095D01*
X0092445Y0151257D02*
X0118502Y0151257D01*
X0115025Y0156255D02*
X0095975Y0156255D01*
X0096257Y0161254D02*
X0104847Y0161254D01*
X0104962Y0161166D02*
X0105806Y0160679D01*
X0106707Y0160306D01*
X0107648Y0160053D01*
X0108615Y0159926D01*
X0109102Y0159926D01*
X0109102Y0171300D01*
X0101665Y0171300D01*
X0109102Y0171300D01*
X0109102Y0171300D01*
X0109102Y0182674D01*
X0108615Y0182674D01*
X0107648Y0182547D01*
X0106707Y0182294D01*
X0105806Y0181921D01*
X0104962Y0181434D01*
X0104188Y0180840D01*
X0103499Y0180151D01*
X0102905Y0179378D01*
X0102418Y0178533D01*
X0102045Y0177633D01*
X0101793Y0176691D01*
X0101665Y0175724D01*
X0101665Y0171300D01*
X0101665Y0166876D01*
X0101793Y0165909D01*
X0102045Y0164967D01*
X0102418Y0164067D01*
X0102905Y0163222D01*
X0103499Y0162449D01*
X0104188Y0161760D01*
X0104962Y0161166D01*
X0101747Y0166252D02*
X0093126Y0166252D01*
X0101665Y0171251D02*
X0071539Y0171251D01*
X0071470Y0176249D02*
X0076195Y0176249D01*
X0075767Y0176427D02*
X0076667Y0176054D01*
X0077609Y0175801D01*
X0078576Y0175674D01*
X0083000Y0175674D01*
X0087424Y0175674D01*
X0088391Y0175801D01*
X0089333Y0176054D01*
X0090233Y0176427D01*
X0091078Y0176914D01*
X0091851Y0177508D01*
X0092540Y0178197D01*
X0093134Y0178970D01*
X0093621Y0179815D01*
X0093994Y0180715D01*
X0094247Y0181657D01*
X0094374Y0182624D01*
X0094374Y0183111D01*
X0083000Y0183111D01*
X0083000Y0175674D01*
X0083000Y0183111D01*
X0083000Y0183111D01*
X0083000Y0183111D01*
X0071626Y0183111D01*
X0071626Y0182624D01*
X0071753Y0181657D01*
X0072006Y0180715D01*
X0072379Y0179815D01*
X0072866Y0178970D01*
X0073460Y0178197D01*
X0074149Y0177508D01*
X0074922Y0176914D01*
X0075767Y0176427D01*
X0071863Y0181248D02*
X0068485Y0181248D01*
X0071626Y0183111D02*
X0083000Y0183111D01*
X0083000Y0183111D01*
X0094374Y0183111D01*
X0094374Y0183598D01*
X0094247Y0184565D01*
X0093994Y0185507D01*
X0093621Y0186407D01*
X0093134Y0187252D01*
X0092540Y0188025D01*
X0091851Y0188714D01*
X0091078Y0189308D01*
X0090233Y0189795D01*
X0089333Y0190168D01*
X0088391Y0190421D01*
X0087424Y0190548D01*
X0083000Y0190548D01*
X0083000Y0183111D01*
X0083000Y0183111D01*
X0083000Y0190548D01*
X0078576Y0190548D01*
X0077609Y0190421D01*
X0076667Y0190168D01*
X0075767Y0189795D01*
X0074922Y0189308D01*
X0074149Y0188714D01*
X0073460Y0188025D01*
X0072866Y0187252D01*
X0072379Y0186407D01*
X0072006Y0185507D01*
X0071753Y0184565D01*
X0071626Y0183598D01*
X0071626Y0183111D01*
X0072312Y0186246D02*
X0014500Y0186246D01*
X0014500Y0181248D02*
X0059719Y0181248D01*
X0056734Y0176249D02*
X0014500Y0176249D01*
X0014500Y0171251D02*
X0056665Y0171251D01*
X0064102Y0176249D02*
X0064102Y0176249D01*
X0064102Y0181248D02*
X0064102Y0181248D01*
X0071457Y0166252D02*
X0072874Y0166252D01*
X0083000Y0176249D02*
X0083000Y0176249D01*
X0083000Y0181248D02*
X0083000Y0181248D01*
X0083000Y0186246D02*
X0083000Y0186246D01*
X0089805Y0176249D02*
X0101734Y0176249D01*
X0104719Y0181248D02*
X0094137Y0181248D01*
X0093688Y0186246D02*
X0117312Y0186246D01*
X0117379Y0186407D02*
X0117006Y0185507D01*
X0116753Y0184565D01*
X0116626Y0183598D01*
X0116626Y0183111D01*
X0116626Y0182624D01*
X0116753Y0181657D01*
X0117006Y0180715D01*
X0117379Y0179815D01*
X0117866Y0178970D01*
X0118460Y0178197D01*
X0119149Y0177508D01*
X0119922Y0176914D01*
X0120767Y0176427D01*
X0121667Y0176054D01*
X0122609Y0175801D01*
X0123576Y0175674D01*
X0128000Y0175674D01*
X0132424Y0175674D01*
X0133391Y0175801D01*
X0134333Y0176054D01*
X0135233Y0176427D01*
X0136078Y0176914D01*
X0136851Y0177508D01*
X0137540Y0178197D01*
X0138134Y0178970D01*
X0138621Y0179815D01*
X0138994Y0180715D01*
X0139247Y0181657D01*
X0139374Y0182624D01*
X0139374Y0183111D01*
X0128000Y0183111D01*
X0128000Y0175674D01*
X0128000Y0183111D01*
X0128000Y0183111D01*
X0128000Y0183111D01*
X0116626Y0183111D01*
X0128000Y0183111D01*
X0128000Y0183111D01*
X0139374Y0183111D01*
X0139374Y0183598D01*
X0139247Y0184565D01*
X0138994Y0185507D01*
X0138621Y0186407D01*
X0138134Y0187252D01*
X0137540Y0188025D01*
X0136851Y0188714D01*
X0136078Y0189308D01*
X0135233Y0189795D01*
X0134333Y0190168D01*
X0133391Y0190421D01*
X0132424Y0190548D01*
X0128000Y0190548D01*
X0128000Y0183111D01*
X0128000Y0183111D01*
X0128000Y0190548D01*
X0123576Y0190548D01*
X0122609Y0190421D01*
X0121667Y0190168D01*
X0120767Y0189795D01*
X0119922Y0189308D01*
X0119149Y0188714D01*
X0118460Y0188025D01*
X0117866Y0187252D01*
X0117379Y0186407D01*
X0116863Y0181248D02*
X0113485Y0181248D01*
X0113243Y0181434D02*
X0112399Y0181921D01*
X0111498Y0182294D01*
X0110556Y0182547D01*
X0109590Y0182674D01*
X0109102Y0182674D01*
X0109102Y0171300D01*
X0109102Y0171300D01*
X0109102Y0171300D01*
X0109102Y0159926D01*
X0109590Y0159926D01*
X0110556Y0160053D01*
X0111498Y0160306D01*
X0112399Y0160679D01*
X0113243Y0161166D01*
X0114016Y0161760D01*
X0114706Y0162449D01*
X0115299Y0163222D01*
X0115787Y0164067D01*
X0116160Y0164967D01*
X0116412Y0165909D01*
X0116539Y0166876D01*
X0116539Y0171300D01*
X0116539Y0175724D01*
X0116412Y0176691D01*
X0116160Y0177633D01*
X0115787Y0178533D01*
X0115299Y0179378D01*
X0114706Y0180151D01*
X0114016Y0180840D01*
X0113243Y0181434D01*
X0109102Y0181248D02*
X0109102Y0181248D01*
X0109102Y0176249D02*
X0109102Y0176249D01*
X0109102Y0171300D02*
X0116539Y0171300D01*
X0109102Y0171300D01*
X0109102Y0171300D01*
X0109102Y0171251D02*
X0109102Y0171251D01*
X0109102Y0166252D02*
X0109102Y0166252D01*
X0109102Y0161254D02*
X0109102Y0161254D01*
X0113357Y0161254D02*
X0114743Y0161254D01*
X0116457Y0166252D02*
X0117874Y0166252D01*
X0116539Y0171251D02*
X0176421Y0171251D01*
X0176421Y0176249D02*
X0134805Y0176249D01*
X0139137Y0181248D02*
X0176421Y0181248D01*
X0176421Y0186246D02*
X0138688Y0186246D01*
X0128000Y0186246D02*
X0128000Y0186246D01*
X0128000Y0181248D02*
X0128000Y0181248D01*
X0128000Y0176249D02*
X0128000Y0176249D01*
X0121195Y0176249D02*
X0116470Y0176249D01*
X0138126Y0166252D02*
X0176421Y0166252D01*
X0176421Y0161254D02*
X0141257Y0161254D01*
X0176421Y0191245D02*
X0014500Y0191245D01*
X0014500Y0196243D02*
X0176421Y0196243D01*
X0176421Y0201242D02*
X0014500Y0201242D01*
X0014500Y0206240D02*
X0176421Y0206240D01*
X0176421Y0211239D02*
X0014500Y0211239D01*
X0014500Y0166252D02*
X0020380Y0166252D01*
X0015140Y0161254D02*
X0014500Y0161254D01*
X0029416Y0136261D02*
X0059900Y0136261D01*
X0059900Y0141260D02*
X0044415Y0141260D01*
X0046100Y0146258D02*
X0059900Y0146258D01*
X0053229Y0151257D02*
X0044498Y0151257D01*
X0051992Y0131263D02*
X0064550Y0131263D01*
X0066989Y0126264D02*
X0059491Y0126264D01*
X0061100Y0121266D02*
X0062184Y0121266D01*
X0061300Y0116267D02*
X0059422Y0116267D01*
X0059006Y0111269D02*
X0059900Y0111269D01*
X0071450Y0131263D02*
X0083850Y0131263D01*
X0083850Y0136261D02*
X0076100Y0136261D01*
X0034988Y0131263D02*
X0025400Y0131263D01*
X0025400Y0126264D02*
X0030476Y0126264D01*
X0029800Y0121266D02*
X0029489Y0121266D01*
X0139957Y0066282D02*
X0146266Y0066282D01*
X0155734Y0066282D02*
X0176421Y0066282D01*
X0176421Y0061284D02*
X0162992Y0061284D01*
X0167516Y0056285D02*
X0176421Y0056285D01*
X0176421Y0051287D02*
X0168200Y0051287D01*
X0168200Y0046288D02*
X0176421Y0046288D01*
X0176421Y0041290D02*
X0168200Y0041290D01*
X0168200Y0036291D02*
X0176421Y0036291D01*
X0176421Y0031293D02*
X0168200Y0031293D01*
X0164969Y0026294D02*
X0176421Y0026294D01*
X0176421Y0071281D02*
X0164111Y0071281D01*
X0165550Y0076279D02*
X0176421Y0076279D01*
X0176421Y0081278D02*
X0164297Y0081278D01*
X0176421Y0106270D02*
X0147200Y0106270D01*
X0172424Y0111269D02*
X0176421Y0111269D01*
X0176421Y0116267D02*
X0173600Y0116267D01*
X0171489Y0121266D02*
X0176421Y0121266D01*
D17*
X0147500Y0117300D02*
X0140500Y0110300D01*
X0140500Y0076300D01*
X0133000Y0068800D01*
X0133000Y0057800D01*
X0151000Y0057800D02*
X0157000Y0057800D01*
X0161500Y0053300D01*
X0161500Y0032300D01*
X0157500Y0028300D01*
X0125500Y0028300D01*
X0110500Y0043300D01*
X0110500Y0051300D01*
X0068000Y0109268D02*
X0068000Y0117800D01*
X0071500Y0121300D01*
X0080500Y0121300D01*
X0054500Y0106300D02*
X0052500Y0108300D01*
X0036500Y0108300D01*
X0036500Y0123300D01*
X0039500Y0126300D01*
X0045500Y0126300D01*
X0054500Y0106300D02*
X0054500Y0068300D01*
X0058000Y0064800D01*
X0058000Y0058800D01*
M02*
